M48
INCH
T10C0.036000
T11C0.032000
T12C0.035000
T13C0.040000
T14C0.042000
T15C0.025000
T16C0.015748
T17C0.125984
%
T10
X024055Y017503
X023055Y017503
X022055Y017503
X021055Y017503
X020055Y017503
X019055Y017503
X018055Y017503
X017055Y017503
X016055Y017503
X015055Y017503
X014055Y017503
X013055Y017503
X012055Y017503
X011055Y017503
X010055Y017503
X024055Y011503
X023055Y011503
X022055Y011503
X021055Y011503
X020055Y011503
X019055Y011503
X018055Y011503
X017055Y011503
X016055Y011503
X015055Y011503
X014055Y011503
X013055Y011503
X012055Y011503
X011055Y011503
X010055Y011503
T11
X004055Y012503
X004055Y013503
X004055Y014503
X004055Y015503
X007055Y015503
X007055Y014503
X007055Y013503
X007055Y012503
T12
X019055Y009503
X023055Y009503
X019055Y008503
X023055Y008503
X019055Y007503
X023055Y007503
X007555Y008003
X007555Y007003
X014555Y008003
X014555Y007003
X008055Y017503
X004055Y017503
X002055Y017503
X002055Y013503
T13
X018055Y004503
X020055Y004503
X022055Y004503
X024055Y004503
X006055Y004503
X008055Y004503
X012555Y020503
X010555Y020503
X016555Y020503
X014555Y020503
X004555Y020503
X002555Y020503
X020555Y020503
X018555Y020503
X024555Y020503
X022555Y020503
X008555Y020503
X006555Y020503
X002055Y004503
X004055Y004503
X010055Y004503
X012055Y004503
X014055Y004503
X016055Y004503
T14
X012055Y008003
X011055Y008003
X010055Y008003
T15
X017055Y009503
X017055Y008715
X017055Y007929
X017055Y007141
T16
X015055Y019503
X022055Y019503
X021055Y019022
X013537Y018503
X025574Y019022
X009055Y011503
X011055Y013503
T17
X026555Y023003
X026055Y001503
X001055Y012003
T00
M30
