G75*
%MOIN*%
%OFA0B0*%
%FSLAX25Y25*%
%IPPOS*%
%LPD*%
%AMOC8*
5,1,8,0,0,1.08239X$1,22.5*
%
%ADD10C,0.00000*%
%ADD11R,0.08000X0.08000*%
%ADD12C,0.08000*%
%ADD13R,0.04724X0.01969*%
%ADD14R,0.04331X0.03937*%
%ADD15C,0.01181*%
%ADD16R,0.03937X0.04331*%
%ADD17R,0.24409X0.21260*%
%ADD18R,0.06299X0.03937*%
%ADD19C,0.03937*%
%ADD20C,0.03369*%
%ADD21C,0.01969*%
%ADD22C,0.07874*%
D10*
X0002969Y0002969D02*
X0002969Y0231315D01*
X0168323Y0231315D01*
X0168323Y0002969D01*
X0002969Y0002969D01*
X0008874Y0014780D02*
X0008876Y0014933D01*
X0008882Y0015087D01*
X0008892Y0015240D01*
X0008906Y0015392D01*
X0008924Y0015545D01*
X0008946Y0015696D01*
X0008971Y0015847D01*
X0009001Y0015998D01*
X0009035Y0016148D01*
X0009072Y0016296D01*
X0009113Y0016444D01*
X0009158Y0016590D01*
X0009207Y0016736D01*
X0009260Y0016880D01*
X0009316Y0017022D01*
X0009376Y0017163D01*
X0009440Y0017303D01*
X0009507Y0017441D01*
X0009578Y0017577D01*
X0009653Y0017711D01*
X0009730Y0017843D01*
X0009812Y0017973D01*
X0009896Y0018101D01*
X0009984Y0018227D01*
X0010075Y0018350D01*
X0010169Y0018471D01*
X0010267Y0018589D01*
X0010367Y0018705D01*
X0010471Y0018818D01*
X0010577Y0018929D01*
X0010686Y0019037D01*
X0010798Y0019142D01*
X0010912Y0019243D01*
X0011030Y0019342D01*
X0011149Y0019438D01*
X0011271Y0019531D01*
X0011396Y0019620D01*
X0011523Y0019707D01*
X0011652Y0019789D01*
X0011783Y0019869D01*
X0011916Y0019945D01*
X0012051Y0020018D01*
X0012188Y0020087D01*
X0012327Y0020152D01*
X0012467Y0020214D01*
X0012609Y0020272D01*
X0012752Y0020327D01*
X0012897Y0020378D01*
X0013043Y0020425D01*
X0013190Y0020468D01*
X0013338Y0020507D01*
X0013487Y0020543D01*
X0013637Y0020574D01*
X0013788Y0020602D01*
X0013939Y0020626D01*
X0014092Y0020646D01*
X0014244Y0020662D01*
X0014397Y0020674D01*
X0014550Y0020682D01*
X0014703Y0020686D01*
X0014857Y0020686D01*
X0015010Y0020682D01*
X0015163Y0020674D01*
X0015316Y0020662D01*
X0015468Y0020646D01*
X0015621Y0020626D01*
X0015772Y0020602D01*
X0015923Y0020574D01*
X0016073Y0020543D01*
X0016222Y0020507D01*
X0016370Y0020468D01*
X0016517Y0020425D01*
X0016663Y0020378D01*
X0016808Y0020327D01*
X0016951Y0020272D01*
X0017093Y0020214D01*
X0017233Y0020152D01*
X0017372Y0020087D01*
X0017509Y0020018D01*
X0017644Y0019945D01*
X0017777Y0019869D01*
X0017908Y0019789D01*
X0018037Y0019707D01*
X0018164Y0019620D01*
X0018289Y0019531D01*
X0018411Y0019438D01*
X0018530Y0019342D01*
X0018648Y0019243D01*
X0018762Y0019142D01*
X0018874Y0019037D01*
X0018983Y0018929D01*
X0019089Y0018818D01*
X0019193Y0018705D01*
X0019293Y0018589D01*
X0019391Y0018471D01*
X0019485Y0018350D01*
X0019576Y0018227D01*
X0019664Y0018101D01*
X0019748Y0017973D01*
X0019830Y0017843D01*
X0019907Y0017711D01*
X0019982Y0017577D01*
X0020053Y0017441D01*
X0020120Y0017303D01*
X0020184Y0017163D01*
X0020244Y0017022D01*
X0020300Y0016880D01*
X0020353Y0016736D01*
X0020402Y0016590D01*
X0020447Y0016444D01*
X0020488Y0016296D01*
X0020525Y0016148D01*
X0020559Y0015998D01*
X0020589Y0015847D01*
X0020614Y0015696D01*
X0020636Y0015545D01*
X0020654Y0015392D01*
X0020668Y0015240D01*
X0020678Y0015087D01*
X0020684Y0014933D01*
X0020686Y0014780D01*
X0020684Y0014627D01*
X0020678Y0014473D01*
X0020668Y0014320D01*
X0020654Y0014168D01*
X0020636Y0014015D01*
X0020614Y0013864D01*
X0020589Y0013713D01*
X0020559Y0013562D01*
X0020525Y0013412D01*
X0020488Y0013264D01*
X0020447Y0013116D01*
X0020402Y0012970D01*
X0020353Y0012824D01*
X0020300Y0012680D01*
X0020244Y0012538D01*
X0020184Y0012397D01*
X0020120Y0012257D01*
X0020053Y0012119D01*
X0019982Y0011983D01*
X0019907Y0011849D01*
X0019830Y0011717D01*
X0019748Y0011587D01*
X0019664Y0011459D01*
X0019576Y0011333D01*
X0019485Y0011210D01*
X0019391Y0011089D01*
X0019293Y0010971D01*
X0019193Y0010855D01*
X0019089Y0010742D01*
X0018983Y0010631D01*
X0018874Y0010523D01*
X0018762Y0010418D01*
X0018648Y0010317D01*
X0018530Y0010218D01*
X0018411Y0010122D01*
X0018289Y0010029D01*
X0018164Y0009940D01*
X0018037Y0009853D01*
X0017908Y0009771D01*
X0017777Y0009691D01*
X0017644Y0009615D01*
X0017509Y0009542D01*
X0017372Y0009473D01*
X0017233Y0009408D01*
X0017093Y0009346D01*
X0016951Y0009288D01*
X0016808Y0009233D01*
X0016663Y0009182D01*
X0016517Y0009135D01*
X0016370Y0009092D01*
X0016222Y0009053D01*
X0016073Y0009017D01*
X0015923Y0008986D01*
X0015772Y0008958D01*
X0015621Y0008934D01*
X0015468Y0008914D01*
X0015316Y0008898D01*
X0015163Y0008886D01*
X0015010Y0008878D01*
X0014857Y0008874D01*
X0014703Y0008874D01*
X0014550Y0008878D01*
X0014397Y0008886D01*
X0014244Y0008898D01*
X0014092Y0008914D01*
X0013939Y0008934D01*
X0013788Y0008958D01*
X0013637Y0008986D01*
X0013487Y0009017D01*
X0013338Y0009053D01*
X0013190Y0009092D01*
X0013043Y0009135D01*
X0012897Y0009182D01*
X0012752Y0009233D01*
X0012609Y0009288D01*
X0012467Y0009346D01*
X0012327Y0009408D01*
X0012188Y0009473D01*
X0012051Y0009542D01*
X0011916Y0009615D01*
X0011783Y0009691D01*
X0011652Y0009771D01*
X0011523Y0009853D01*
X0011396Y0009940D01*
X0011271Y0010029D01*
X0011149Y0010122D01*
X0011030Y0010218D01*
X0010912Y0010317D01*
X0010798Y0010418D01*
X0010686Y0010523D01*
X0010577Y0010631D01*
X0010471Y0010742D01*
X0010367Y0010855D01*
X0010267Y0010971D01*
X0010169Y0011089D01*
X0010075Y0011210D01*
X0009984Y0011333D01*
X0009896Y0011459D01*
X0009812Y0011587D01*
X0009730Y0011717D01*
X0009653Y0011849D01*
X0009578Y0011983D01*
X0009507Y0012119D01*
X0009440Y0012257D01*
X0009376Y0012397D01*
X0009316Y0012538D01*
X0009260Y0012680D01*
X0009207Y0012824D01*
X0009158Y0012970D01*
X0009113Y0013116D01*
X0009072Y0013264D01*
X0009035Y0013412D01*
X0009001Y0013562D01*
X0008971Y0013713D01*
X0008946Y0013864D01*
X0008924Y0014015D01*
X0008906Y0014168D01*
X0008892Y0014320D01*
X0008882Y0014473D01*
X0008876Y0014627D01*
X0008874Y0014780D01*
X0150606Y0014780D02*
X0150608Y0014933D01*
X0150614Y0015087D01*
X0150624Y0015240D01*
X0150638Y0015392D01*
X0150656Y0015545D01*
X0150678Y0015696D01*
X0150703Y0015847D01*
X0150733Y0015998D01*
X0150767Y0016148D01*
X0150804Y0016296D01*
X0150845Y0016444D01*
X0150890Y0016590D01*
X0150939Y0016736D01*
X0150992Y0016880D01*
X0151048Y0017022D01*
X0151108Y0017163D01*
X0151172Y0017303D01*
X0151239Y0017441D01*
X0151310Y0017577D01*
X0151385Y0017711D01*
X0151462Y0017843D01*
X0151544Y0017973D01*
X0151628Y0018101D01*
X0151716Y0018227D01*
X0151807Y0018350D01*
X0151901Y0018471D01*
X0151999Y0018589D01*
X0152099Y0018705D01*
X0152203Y0018818D01*
X0152309Y0018929D01*
X0152418Y0019037D01*
X0152530Y0019142D01*
X0152644Y0019243D01*
X0152762Y0019342D01*
X0152881Y0019438D01*
X0153003Y0019531D01*
X0153128Y0019620D01*
X0153255Y0019707D01*
X0153384Y0019789D01*
X0153515Y0019869D01*
X0153648Y0019945D01*
X0153783Y0020018D01*
X0153920Y0020087D01*
X0154059Y0020152D01*
X0154199Y0020214D01*
X0154341Y0020272D01*
X0154484Y0020327D01*
X0154629Y0020378D01*
X0154775Y0020425D01*
X0154922Y0020468D01*
X0155070Y0020507D01*
X0155219Y0020543D01*
X0155369Y0020574D01*
X0155520Y0020602D01*
X0155671Y0020626D01*
X0155824Y0020646D01*
X0155976Y0020662D01*
X0156129Y0020674D01*
X0156282Y0020682D01*
X0156435Y0020686D01*
X0156589Y0020686D01*
X0156742Y0020682D01*
X0156895Y0020674D01*
X0157048Y0020662D01*
X0157200Y0020646D01*
X0157353Y0020626D01*
X0157504Y0020602D01*
X0157655Y0020574D01*
X0157805Y0020543D01*
X0157954Y0020507D01*
X0158102Y0020468D01*
X0158249Y0020425D01*
X0158395Y0020378D01*
X0158540Y0020327D01*
X0158683Y0020272D01*
X0158825Y0020214D01*
X0158965Y0020152D01*
X0159104Y0020087D01*
X0159241Y0020018D01*
X0159376Y0019945D01*
X0159509Y0019869D01*
X0159640Y0019789D01*
X0159769Y0019707D01*
X0159896Y0019620D01*
X0160021Y0019531D01*
X0160143Y0019438D01*
X0160262Y0019342D01*
X0160380Y0019243D01*
X0160494Y0019142D01*
X0160606Y0019037D01*
X0160715Y0018929D01*
X0160821Y0018818D01*
X0160925Y0018705D01*
X0161025Y0018589D01*
X0161123Y0018471D01*
X0161217Y0018350D01*
X0161308Y0018227D01*
X0161396Y0018101D01*
X0161480Y0017973D01*
X0161562Y0017843D01*
X0161639Y0017711D01*
X0161714Y0017577D01*
X0161785Y0017441D01*
X0161852Y0017303D01*
X0161916Y0017163D01*
X0161976Y0017022D01*
X0162032Y0016880D01*
X0162085Y0016736D01*
X0162134Y0016590D01*
X0162179Y0016444D01*
X0162220Y0016296D01*
X0162257Y0016148D01*
X0162291Y0015998D01*
X0162321Y0015847D01*
X0162346Y0015696D01*
X0162368Y0015545D01*
X0162386Y0015392D01*
X0162400Y0015240D01*
X0162410Y0015087D01*
X0162416Y0014933D01*
X0162418Y0014780D01*
X0162416Y0014627D01*
X0162410Y0014473D01*
X0162400Y0014320D01*
X0162386Y0014168D01*
X0162368Y0014015D01*
X0162346Y0013864D01*
X0162321Y0013713D01*
X0162291Y0013562D01*
X0162257Y0013412D01*
X0162220Y0013264D01*
X0162179Y0013116D01*
X0162134Y0012970D01*
X0162085Y0012824D01*
X0162032Y0012680D01*
X0161976Y0012538D01*
X0161916Y0012397D01*
X0161852Y0012257D01*
X0161785Y0012119D01*
X0161714Y0011983D01*
X0161639Y0011849D01*
X0161562Y0011717D01*
X0161480Y0011587D01*
X0161396Y0011459D01*
X0161308Y0011333D01*
X0161217Y0011210D01*
X0161123Y0011089D01*
X0161025Y0010971D01*
X0160925Y0010855D01*
X0160821Y0010742D01*
X0160715Y0010631D01*
X0160606Y0010523D01*
X0160494Y0010418D01*
X0160380Y0010317D01*
X0160262Y0010218D01*
X0160143Y0010122D01*
X0160021Y0010029D01*
X0159896Y0009940D01*
X0159769Y0009853D01*
X0159640Y0009771D01*
X0159509Y0009691D01*
X0159376Y0009615D01*
X0159241Y0009542D01*
X0159104Y0009473D01*
X0158965Y0009408D01*
X0158825Y0009346D01*
X0158683Y0009288D01*
X0158540Y0009233D01*
X0158395Y0009182D01*
X0158249Y0009135D01*
X0158102Y0009092D01*
X0157954Y0009053D01*
X0157805Y0009017D01*
X0157655Y0008986D01*
X0157504Y0008958D01*
X0157353Y0008934D01*
X0157200Y0008914D01*
X0157048Y0008898D01*
X0156895Y0008886D01*
X0156742Y0008878D01*
X0156589Y0008874D01*
X0156435Y0008874D01*
X0156282Y0008878D01*
X0156129Y0008886D01*
X0155976Y0008898D01*
X0155824Y0008914D01*
X0155671Y0008934D01*
X0155520Y0008958D01*
X0155369Y0008986D01*
X0155219Y0009017D01*
X0155070Y0009053D01*
X0154922Y0009092D01*
X0154775Y0009135D01*
X0154629Y0009182D01*
X0154484Y0009233D01*
X0154341Y0009288D01*
X0154199Y0009346D01*
X0154059Y0009408D01*
X0153920Y0009473D01*
X0153783Y0009542D01*
X0153648Y0009615D01*
X0153515Y0009691D01*
X0153384Y0009771D01*
X0153255Y0009853D01*
X0153128Y0009940D01*
X0153003Y0010029D01*
X0152881Y0010122D01*
X0152762Y0010218D01*
X0152644Y0010317D01*
X0152530Y0010418D01*
X0152418Y0010523D01*
X0152309Y0010631D01*
X0152203Y0010742D01*
X0152099Y0010855D01*
X0151999Y0010971D01*
X0151901Y0011089D01*
X0151807Y0011210D01*
X0151716Y0011333D01*
X0151628Y0011459D01*
X0151544Y0011587D01*
X0151462Y0011717D01*
X0151385Y0011849D01*
X0151310Y0011983D01*
X0151239Y0012119D01*
X0151172Y0012257D01*
X0151108Y0012397D01*
X0151048Y0012538D01*
X0150992Y0012680D01*
X0150939Y0012824D01*
X0150890Y0012970D01*
X0150845Y0013116D01*
X0150804Y0013264D01*
X0150767Y0013412D01*
X0150733Y0013562D01*
X0150703Y0013713D01*
X0150678Y0013864D01*
X0150656Y0014015D01*
X0150638Y0014168D01*
X0150624Y0014320D01*
X0150614Y0014473D01*
X0150608Y0014627D01*
X0150606Y0014780D01*
X0150606Y0219504D02*
X0150608Y0219657D01*
X0150614Y0219811D01*
X0150624Y0219964D01*
X0150638Y0220116D01*
X0150656Y0220269D01*
X0150678Y0220420D01*
X0150703Y0220571D01*
X0150733Y0220722D01*
X0150767Y0220872D01*
X0150804Y0221020D01*
X0150845Y0221168D01*
X0150890Y0221314D01*
X0150939Y0221460D01*
X0150992Y0221604D01*
X0151048Y0221746D01*
X0151108Y0221887D01*
X0151172Y0222027D01*
X0151239Y0222165D01*
X0151310Y0222301D01*
X0151385Y0222435D01*
X0151462Y0222567D01*
X0151544Y0222697D01*
X0151628Y0222825D01*
X0151716Y0222951D01*
X0151807Y0223074D01*
X0151901Y0223195D01*
X0151999Y0223313D01*
X0152099Y0223429D01*
X0152203Y0223542D01*
X0152309Y0223653D01*
X0152418Y0223761D01*
X0152530Y0223866D01*
X0152644Y0223967D01*
X0152762Y0224066D01*
X0152881Y0224162D01*
X0153003Y0224255D01*
X0153128Y0224344D01*
X0153255Y0224431D01*
X0153384Y0224513D01*
X0153515Y0224593D01*
X0153648Y0224669D01*
X0153783Y0224742D01*
X0153920Y0224811D01*
X0154059Y0224876D01*
X0154199Y0224938D01*
X0154341Y0224996D01*
X0154484Y0225051D01*
X0154629Y0225102D01*
X0154775Y0225149D01*
X0154922Y0225192D01*
X0155070Y0225231D01*
X0155219Y0225267D01*
X0155369Y0225298D01*
X0155520Y0225326D01*
X0155671Y0225350D01*
X0155824Y0225370D01*
X0155976Y0225386D01*
X0156129Y0225398D01*
X0156282Y0225406D01*
X0156435Y0225410D01*
X0156589Y0225410D01*
X0156742Y0225406D01*
X0156895Y0225398D01*
X0157048Y0225386D01*
X0157200Y0225370D01*
X0157353Y0225350D01*
X0157504Y0225326D01*
X0157655Y0225298D01*
X0157805Y0225267D01*
X0157954Y0225231D01*
X0158102Y0225192D01*
X0158249Y0225149D01*
X0158395Y0225102D01*
X0158540Y0225051D01*
X0158683Y0224996D01*
X0158825Y0224938D01*
X0158965Y0224876D01*
X0159104Y0224811D01*
X0159241Y0224742D01*
X0159376Y0224669D01*
X0159509Y0224593D01*
X0159640Y0224513D01*
X0159769Y0224431D01*
X0159896Y0224344D01*
X0160021Y0224255D01*
X0160143Y0224162D01*
X0160262Y0224066D01*
X0160380Y0223967D01*
X0160494Y0223866D01*
X0160606Y0223761D01*
X0160715Y0223653D01*
X0160821Y0223542D01*
X0160925Y0223429D01*
X0161025Y0223313D01*
X0161123Y0223195D01*
X0161217Y0223074D01*
X0161308Y0222951D01*
X0161396Y0222825D01*
X0161480Y0222697D01*
X0161562Y0222567D01*
X0161639Y0222435D01*
X0161714Y0222301D01*
X0161785Y0222165D01*
X0161852Y0222027D01*
X0161916Y0221887D01*
X0161976Y0221746D01*
X0162032Y0221604D01*
X0162085Y0221460D01*
X0162134Y0221314D01*
X0162179Y0221168D01*
X0162220Y0221020D01*
X0162257Y0220872D01*
X0162291Y0220722D01*
X0162321Y0220571D01*
X0162346Y0220420D01*
X0162368Y0220269D01*
X0162386Y0220116D01*
X0162400Y0219964D01*
X0162410Y0219811D01*
X0162416Y0219657D01*
X0162418Y0219504D01*
X0162416Y0219351D01*
X0162410Y0219197D01*
X0162400Y0219044D01*
X0162386Y0218892D01*
X0162368Y0218739D01*
X0162346Y0218588D01*
X0162321Y0218437D01*
X0162291Y0218286D01*
X0162257Y0218136D01*
X0162220Y0217988D01*
X0162179Y0217840D01*
X0162134Y0217694D01*
X0162085Y0217548D01*
X0162032Y0217404D01*
X0161976Y0217262D01*
X0161916Y0217121D01*
X0161852Y0216981D01*
X0161785Y0216843D01*
X0161714Y0216707D01*
X0161639Y0216573D01*
X0161562Y0216441D01*
X0161480Y0216311D01*
X0161396Y0216183D01*
X0161308Y0216057D01*
X0161217Y0215934D01*
X0161123Y0215813D01*
X0161025Y0215695D01*
X0160925Y0215579D01*
X0160821Y0215466D01*
X0160715Y0215355D01*
X0160606Y0215247D01*
X0160494Y0215142D01*
X0160380Y0215041D01*
X0160262Y0214942D01*
X0160143Y0214846D01*
X0160021Y0214753D01*
X0159896Y0214664D01*
X0159769Y0214577D01*
X0159640Y0214495D01*
X0159509Y0214415D01*
X0159376Y0214339D01*
X0159241Y0214266D01*
X0159104Y0214197D01*
X0158965Y0214132D01*
X0158825Y0214070D01*
X0158683Y0214012D01*
X0158540Y0213957D01*
X0158395Y0213906D01*
X0158249Y0213859D01*
X0158102Y0213816D01*
X0157954Y0213777D01*
X0157805Y0213741D01*
X0157655Y0213710D01*
X0157504Y0213682D01*
X0157353Y0213658D01*
X0157200Y0213638D01*
X0157048Y0213622D01*
X0156895Y0213610D01*
X0156742Y0213602D01*
X0156589Y0213598D01*
X0156435Y0213598D01*
X0156282Y0213602D01*
X0156129Y0213610D01*
X0155976Y0213622D01*
X0155824Y0213638D01*
X0155671Y0213658D01*
X0155520Y0213682D01*
X0155369Y0213710D01*
X0155219Y0213741D01*
X0155070Y0213777D01*
X0154922Y0213816D01*
X0154775Y0213859D01*
X0154629Y0213906D01*
X0154484Y0213957D01*
X0154341Y0214012D01*
X0154199Y0214070D01*
X0154059Y0214132D01*
X0153920Y0214197D01*
X0153783Y0214266D01*
X0153648Y0214339D01*
X0153515Y0214415D01*
X0153384Y0214495D01*
X0153255Y0214577D01*
X0153128Y0214664D01*
X0153003Y0214753D01*
X0152881Y0214846D01*
X0152762Y0214942D01*
X0152644Y0215041D01*
X0152530Y0215142D01*
X0152418Y0215247D01*
X0152309Y0215355D01*
X0152203Y0215466D01*
X0152099Y0215579D01*
X0151999Y0215695D01*
X0151901Y0215813D01*
X0151807Y0215934D01*
X0151716Y0216057D01*
X0151628Y0216183D01*
X0151544Y0216311D01*
X0151462Y0216441D01*
X0151385Y0216573D01*
X0151310Y0216707D01*
X0151239Y0216843D01*
X0151172Y0216981D01*
X0151108Y0217121D01*
X0151048Y0217262D01*
X0150992Y0217404D01*
X0150939Y0217548D01*
X0150890Y0217694D01*
X0150845Y0217840D01*
X0150804Y0217988D01*
X0150767Y0218136D01*
X0150733Y0218286D01*
X0150703Y0218437D01*
X0150678Y0218588D01*
X0150656Y0218739D01*
X0150638Y0218892D01*
X0150624Y0219044D01*
X0150614Y0219197D01*
X0150608Y0219351D01*
X0150606Y0219504D01*
X0008874Y0219504D02*
X0008876Y0219657D01*
X0008882Y0219811D01*
X0008892Y0219964D01*
X0008906Y0220116D01*
X0008924Y0220269D01*
X0008946Y0220420D01*
X0008971Y0220571D01*
X0009001Y0220722D01*
X0009035Y0220872D01*
X0009072Y0221020D01*
X0009113Y0221168D01*
X0009158Y0221314D01*
X0009207Y0221460D01*
X0009260Y0221604D01*
X0009316Y0221746D01*
X0009376Y0221887D01*
X0009440Y0222027D01*
X0009507Y0222165D01*
X0009578Y0222301D01*
X0009653Y0222435D01*
X0009730Y0222567D01*
X0009812Y0222697D01*
X0009896Y0222825D01*
X0009984Y0222951D01*
X0010075Y0223074D01*
X0010169Y0223195D01*
X0010267Y0223313D01*
X0010367Y0223429D01*
X0010471Y0223542D01*
X0010577Y0223653D01*
X0010686Y0223761D01*
X0010798Y0223866D01*
X0010912Y0223967D01*
X0011030Y0224066D01*
X0011149Y0224162D01*
X0011271Y0224255D01*
X0011396Y0224344D01*
X0011523Y0224431D01*
X0011652Y0224513D01*
X0011783Y0224593D01*
X0011916Y0224669D01*
X0012051Y0224742D01*
X0012188Y0224811D01*
X0012327Y0224876D01*
X0012467Y0224938D01*
X0012609Y0224996D01*
X0012752Y0225051D01*
X0012897Y0225102D01*
X0013043Y0225149D01*
X0013190Y0225192D01*
X0013338Y0225231D01*
X0013487Y0225267D01*
X0013637Y0225298D01*
X0013788Y0225326D01*
X0013939Y0225350D01*
X0014092Y0225370D01*
X0014244Y0225386D01*
X0014397Y0225398D01*
X0014550Y0225406D01*
X0014703Y0225410D01*
X0014857Y0225410D01*
X0015010Y0225406D01*
X0015163Y0225398D01*
X0015316Y0225386D01*
X0015468Y0225370D01*
X0015621Y0225350D01*
X0015772Y0225326D01*
X0015923Y0225298D01*
X0016073Y0225267D01*
X0016222Y0225231D01*
X0016370Y0225192D01*
X0016517Y0225149D01*
X0016663Y0225102D01*
X0016808Y0225051D01*
X0016951Y0224996D01*
X0017093Y0224938D01*
X0017233Y0224876D01*
X0017372Y0224811D01*
X0017509Y0224742D01*
X0017644Y0224669D01*
X0017777Y0224593D01*
X0017908Y0224513D01*
X0018037Y0224431D01*
X0018164Y0224344D01*
X0018289Y0224255D01*
X0018411Y0224162D01*
X0018530Y0224066D01*
X0018648Y0223967D01*
X0018762Y0223866D01*
X0018874Y0223761D01*
X0018983Y0223653D01*
X0019089Y0223542D01*
X0019193Y0223429D01*
X0019293Y0223313D01*
X0019391Y0223195D01*
X0019485Y0223074D01*
X0019576Y0222951D01*
X0019664Y0222825D01*
X0019748Y0222697D01*
X0019830Y0222567D01*
X0019907Y0222435D01*
X0019982Y0222301D01*
X0020053Y0222165D01*
X0020120Y0222027D01*
X0020184Y0221887D01*
X0020244Y0221746D01*
X0020300Y0221604D01*
X0020353Y0221460D01*
X0020402Y0221314D01*
X0020447Y0221168D01*
X0020488Y0221020D01*
X0020525Y0220872D01*
X0020559Y0220722D01*
X0020589Y0220571D01*
X0020614Y0220420D01*
X0020636Y0220269D01*
X0020654Y0220116D01*
X0020668Y0219964D01*
X0020678Y0219811D01*
X0020684Y0219657D01*
X0020686Y0219504D01*
X0020684Y0219351D01*
X0020678Y0219197D01*
X0020668Y0219044D01*
X0020654Y0218892D01*
X0020636Y0218739D01*
X0020614Y0218588D01*
X0020589Y0218437D01*
X0020559Y0218286D01*
X0020525Y0218136D01*
X0020488Y0217988D01*
X0020447Y0217840D01*
X0020402Y0217694D01*
X0020353Y0217548D01*
X0020300Y0217404D01*
X0020244Y0217262D01*
X0020184Y0217121D01*
X0020120Y0216981D01*
X0020053Y0216843D01*
X0019982Y0216707D01*
X0019907Y0216573D01*
X0019830Y0216441D01*
X0019748Y0216311D01*
X0019664Y0216183D01*
X0019576Y0216057D01*
X0019485Y0215934D01*
X0019391Y0215813D01*
X0019293Y0215695D01*
X0019193Y0215579D01*
X0019089Y0215466D01*
X0018983Y0215355D01*
X0018874Y0215247D01*
X0018762Y0215142D01*
X0018648Y0215041D01*
X0018530Y0214942D01*
X0018411Y0214846D01*
X0018289Y0214753D01*
X0018164Y0214664D01*
X0018037Y0214577D01*
X0017908Y0214495D01*
X0017777Y0214415D01*
X0017644Y0214339D01*
X0017509Y0214266D01*
X0017372Y0214197D01*
X0017233Y0214132D01*
X0017093Y0214070D01*
X0016951Y0214012D01*
X0016808Y0213957D01*
X0016663Y0213906D01*
X0016517Y0213859D01*
X0016370Y0213816D01*
X0016222Y0213777D01*
X0016073Y0213741D01*
X0015923Y0213710D01*
X0015772Y0213682D01*
X0015621Y0213658D01*
X0015468Y0213638D01*
X0015316Y0213622D01*
X0015163Y0213610D01*
X0015010Y0213602D01*
X0014857Y0213598D01*
X0014703Y0213598D01*
X0014550Y0213602D01*
X0014397Y0213610D01*
X0014244Y0213622D01*
X0014092Y0213638D01*
X0013939Y0213658D01*
X0013788Y0213682D01*
X0013637Y0213710D01*
X0013487Y0213741D01*
X0013338Y0213777D01*
X0013190Y0213816D01*
X0013043Y0213859D01*
X0012897Y0213906D01*
X0012752Y0213957D01*
X0012609Y0214012D01*
X0012467Y0214070D01*
X0012327Y0214132D01*
X0012188Y0214197D01*
X0012051Y0214266D01*
X0011916Y0214339D01*
X0011783Y0214415D01*
X0011652Y0214495D01*
X0011523Y0214577D01*
X0011396Y0214664D01*
X0011271Y0214753D01*
X0011149Y0214846D01*
X0011030Y0214942D01*
X0010912Y0215041D01*
X0010798Y0215142D01*
X0010686Y0215247D01*
X0010577Y0215355D01*
X0010471Y0215466D01*
X0010367Y0215579D01*
X0010267Y0215695D01*
X0010169Y0215813D01*
X0010075Y0215934D01*
X0009984Y0216057D01*
X0009896Y0216183D01*
X0009812Y0216311D01*
X0009730Y0216441D01*
X0009653Y0216573D01*
X0009578Y0216707D01*
X0009507Y0216843D01*
X0009440Y0216981D01*
X0009376Y0217121D01*
X0009316Y0217262D01*
X0009260Y0217404D01*
X0009207Y0217548D01*
X0009158Y0217694D01*
X0009113Y0217840D01*
X0009072Y0217988D01*
X0009035Y0218136D01*
X0009001Y0218286D01*
X0008971Y0218437D01*
X0008946Y0218588D01*
X0008924Y0218739D01*
X0008906Y0218892D01*
X0008892Y0219044D01*
X0008882Y0219197D01*
X0008876Y0219351D01*
X0008874Y0219504D01*
D11*
X0036433Y0195882D03*
X0075803Y0195882D03*
X0130921Y0148638D03*
X0130921Y0109268D03*
X0130921Y0069898D03*
X0130921Y0030528D03*
X0075803Y0030528D03*
X0036433Y0030528D03*
D12*
X0056118Y0030528D03*
X0095488Y0030528D03*
X0130921Y0050213D03*
X0130921Y0089583D03*
X0130921Y0128953D03*
X0130921Y0168323D03*
X0095488Y0195882D03*
X0056118Y0195882D03*
D13*
X0047378Y0124031D03*
X0047378Y0119031D03*
X0047378Y0114031D03*
X0047378Y0109031D03*
X0047378Y0104031D03*
X0047378Y0099031D03*
X0047378Y0094031D03*
X0025724Y0094031D03*
X0025724Y0099031D03*
X0025724Y0104031D03*
X0025724Y0109031D03*
X0025724Y0114031D03*
X0025724Y0119031D03*
X0025724Y0124031D03*
D14*
X0084268Y0105331D03*
X0090961Y0105331D03*
X0099622Y0105331D03*
X0106315Y0105331D03*
X0106315Y0065961D03*
X0099622Y0065961D03*
X0099622Y0144701D03*
X0106315Y0144701D03*
X0090961Y0144701D03*
X0084268Y0144701D03*
X0084268Y0180134D03*
X0090961Y0180134D03*
D15*
X0073941Y0178756D02*
X0073941Y0181512D01*
X0076697Y0181512D01*
X0076697Y0178756D01*
X0073941Y0178756D01*
X0073941Y0179936D02*
X0076697Y0179936D01*
X0076697Y0181116D02*
X0073941Y0181116D01*
X0067035Y0181512D02*
X0067035Y0178756D01*
X0067035Y0181512D02*
X0069791Y0181512D01*
X0069791Y0178756D01*
X0067035Y0178756D01*
X0067035Y0179936D02*
X0069791Y0179936D01*
X0069791Y0181116D02*
X0067035Y0181116D01*
X0067035Y0146079D02*
X0067035Y0143323D01*
X0067035Y0146079D02*
X0069791Y0146079D01*
X0069791Y0143323D01*
X0067035Y0143323D01*
X0067035Y0144503D02*
X0069791Y0144503D01*
X0069791Y0145683D02*
X0067035Y0145683D01*
X0073941Y0146079D02*
X0073941Y0143323D01*
X0073941Y0146079D02*
X0076697Y0146079D01*
X0076697Y0143323D01*
X0073941Y0143323D01*
X0073941Y0144503D02*
X0076697Y0144503D01*
X0076697Y0145683D02*
X0073941Y0145683D01*
X0073941Y0106709D02*
X0073941Y0103953D01*
X0073941Y0106709D02*
X0076697Y0106709D01*
X0076697Y0103953D01*
X0073941Y0103953D01*
X0073941Y0105133D02*
X0076697Y0105133D01*
X0076697Y0106313D02*
X0073941Y0106313D01*
X0067035Y0106709D02*
X0067035Y0103953D01*
X0067035Y0106709D02*
X0069791Y0106709D01*
X0069791Y0103953D01*
X0067035Y0103953D01*
X0067035Y0105133D02*
X0069791Y0105133D01*
X0069791Y0106313D02*
X0067035Y0106313D01*
D16*
X0046669Y0130724D03*
X0046669Y0137417D03*
D17*
X0077772Y0125016D03*
X0077772Y0164386D03*
X0077772Y0085646D03*
D18*
X0106512Y0094622D03*
X0106512Y0076669D03*
X0106512Y0116039D03*
X0106512Y0133992D03*
X0106512Y0155409D03*
X0106512Y0173362D03*
D19*
X0102272Y0168260D02*
X0092945Y0168260D01*
X0092945Y0166354D02*
X0092945Y0172984D01*
X0094636Y0171293D01*
X0095663Y0170266D01*
X0097006Y0169709D01*
X0100875Y0169709D01*
X0100912Y0169620D01*
X0107809Y0162723D01*
X0110237Y0161717D01*
X0129443Y0161717D01*
X0129595Y0161654D01*
X0132248Y0161654D01*
X0134699Y0162670D01*
X0136575Y0164545D01*
X0137590Y0166996D01*
X0137590Y0169649D01*
X0136575Y0172100D01*
X0134699Y0173976D01*
X0132248Y0174991D01*
X0129595Y0174991D01*
X0129443Y0174928D01*
X0114287Y0174928D01*
X0110254Y0178962D01*
X0107826Y0179968D01*
X0105198Y0179968D01*
X0102770Y0178962D01*
X0100912Y0177104D01*
X0100875Y0177015D01*
X0099245Y0177015D01*
X0095794Y0180466D01*
X0095794Y0182633D01*
X0095388Y0183614D01*
X0094638Y0184365D01*
X0093657Y0184771D01*
X0089543Y0184771D01*
X0094037Y0189265D01*
X0094162Y0189213D01*
X0096815Y0189213D01*
X0099266Y0190229D01*
X0101141Y0192104D01*
X0102157Y0194555D01*
X0102157Y0197208D01*
X0101141Y0199659D01*
X0099266Y0201535D01*
X0096815Y0202550D01*
X0094162Y0202550D01*
X0091711Y0201535D01*
X0089835Y0199659D01*
X0088820Y0197208D01*
X0088820Y0194555D01*
X0088871Y0194431D01*
X0084133Y0189692D01*
X0081387Y0189692D01*
X0082065Y0190370D01*
X0082472Y0191351D01*
X0082472Y0200413D01*
X0082065Y0201393D01*
X0081315Y0202144D01*
X0080334Y0202550D01*
X0074300Y0202550D01*
X0071026Y0205825D01*
X0069998Y0206853D01*
X0068656Y0207409D01*
X0017990Y0207409D01*
X0016647Y0206853D01*
X0015620Y0205825D01*
X0015064Y0204482D01*
X0015064Y0118384D01*
X0015620Y0117041D01*
X0015699Y0116962D01*
X0016726Y0115935D01*
X0018069Y0115379D01*
X0020408Y0115379D01*
X0020394Y0115308D01*
X0020394Y0114032D01*
X0025724Y0114032D01*
X0025724Y0114031D01*
X0025724Y0114031D01*
X0025724Y0112984D01*
X0025724Y0109032D01*
X0025724Y0109032D01*
X0025724Y0109031D01*
X0025724Y0109031D01*
X0025724Y0107984D01*
X0025724Y0104032D01*
X0025724Y0104032D01*
X0025724Y0104031D01*
X0025724Y0104031D01*
X0025724Y0102984D01*
X0025724Y0099032D01*
X0025724Y0099032D01*
X0025724Y0099031D01*
X0025724Y0099031D01*
X0025724Y0095079D01*
X0025724Y0094032D01*
X0025724Y0094032D01*
X0025724Y0094031D01*
X0025724Y0094031D01*
X0025724Y0090079D01*
X0023070Y0090079D01*
X0022496Y0090193D01*
X0021956Y0090417D01*
X0021470Y0090741D01*
X0021056Y0091155D01*
X0020732Y0091641D01*
X0020508Y0092181D01*
X0020394Y0092755D01*
X0020394Y0094031D01*
X0025724Y0094031D01*
X0025724Y0090079D01*
X0028379Y0090079D01*
X0028952Y0090193D01*
X0029493Y0090417D01*
X0029979Y0090741D01*
X0030392Y0091155D01*
X0030717Y0091641D01*
X0030941Y0092181D01*
X0031055Y0092755D01*
X0031055Y0094031D01*
X0025725Y0094031D01*
X0025725Y0094032D01*
X0031055Y0094032D01*
X0031055Y0095308D01*
X0030941Y0095882D01*
X0030717Y0096422D01*
X0030644Y0096531D01*
X0030717Y0096641D01*
X0030941Y0097181D01*
X0031055Y0097755D01*
X0031055Y0099031D01*
X0025725Y0099031D01*
X0025725Y0099032D01*
X0031055Y0099032D01*
X0031055Y0100308D01*
X0030941Y0100882D01*
X0030717Y0101422D01*
X0030644Y0101531D01*
X0030717Y0101641D01*
X0030941Y0102181D01*
X0031055Y0102755D01*
X0031055Y0104031D01*
X0025725Y0104031D01*
X0025725Y0104032D01*
X0031055Y0104032D01*
X0031055Y0105308D01*
X0030941Y0105882D01*
X0030717Y0106422D01*
X0030644Y0106531D01*
X0030717Y0106641D01*
X0030941Y0107181D01*
X0031055Y0107755D01*
X0031055Y0109031D01*
X0025725Y0109031D01*
X0025725Y0109032D01*
X0031055Y0109032D01*
X0031055Y0110308D01*
X0030941Y0110882D01*
X0030717Y0111422D01*
X0030644Y0111531D01*
X0030717Y0111641D01*
X0030941Y0112181D01*
X0031055Y0112755D01*
X0031055Y0114031D01*
X0025725Y0114031D01*
X0025725Y0114032D01*
X0031055Y0114032D01*
X0031055Y0115308D01*
X0030941Y0115882D01*
X0030717Y0116422D01*
X0030461Y0116806D01*
X0030755Y0117516D01*
X0030755Y0120547D01*
X0030349Y0121527D01*
X0030345Y0121531D01*
X0030349Y0121536D01*
X0030755Y0122516D01*
X0030755Y0125547D01*
X0030349Y0126527D01*
X0029598Y0127278D01*
X0029377Y0127370D01*
X0029377Y0150196D01*
X0057899Y0178717D01*
X0058334Y0177668D01*
X0059558Y0176444D01*
X0061158Y0175781D01*
X0062693Y0175781D01*
X0062598Y0175308D01*
X0062598Y0166354D01*
X0075803Y0166354D01*
X0075803Y0162417D01*
X0062598Y0162417D01*
X0062598Y0154259D01*
X0055392Y0154259D01*
X0054049Y0153703D01*
X0053021Y0152675D01*
X0052465Y0151333D01*
X0052465Y0116857D01*
X0052136Y0116857D01*
X0052409Y0117516D01*
X0052409Y0120547D01*
X0052002Y0121527D01*
X0051998Y0121531D01*
X0052002Y0121536D01*
X0052409Y0122516D01*
X0052409Y0125547D01*
X0052002Y0126527D01*
X0051252Y0127278D01*
X0051033Y0127369D01*
X0051306Y0128028D01*
X0051306Y0133421D01*
X0051183Y0133718D01*
X0051268Y0133846D01*
X0051492Y0134386D01*
X0051606Y0134960D01*
X0051606Y0137417D01*
X0046669Y0137417D01*
X0041732Y0137417D01*
X0041732Y0135274D01*
X0040685Y0135274D01*
X0039086Y0134611D01*
X0037861Y0133387D01*
X0037198Y0131787D01*
X0037198Y0130055D01*
X0037861Y0128456D01*
X0039086Y0127231D01*
X0040685Y0126569D01*
X0042417Y0126569D01*
X0042771Y0126715D01*
X0042856Y0126630D01*
X0042753Y0126527D01*
X0042347Y0125547D01*
X0042347Y0122684D01*
X0037350Y0122684D01*
X0037160Y0122763D01*
X0035706Y0122763D01*
X0034364Y0122207D01*
X0033336Y0121179D01*
X0032780Y0119837D01*
X0032780Y0045549D01*
X0033336Y0044206D01*
X0034364Y0043179D01*
X0040347Y0037196D01*
X0031902Y0037196D01*
X0030921Y0036790D01*
X0030171Y0036039D01*
X0029765Y0035058D01*
X0029765Y0025997D01*
X0030171Y0025016D01*
X0030921Y0024265D01*
X0031902Y0023859D01*
X0040964Y0023859D01*
X0041945Y0024265D01*
X0042623Y0024944D01*
X0042623Y0016021D01*
X0043179Y0014679D01*
X0044206Y0013651D01*
X0045549Y0013095D01*
X0082435Y0013095D01*
X0083778Y0013651D01*
X0094037Y0023911D01*
X0094162Y0023859D01*
X0096815Y0023859D01*
X0099266Y0024874D01*
X0101141Y0026750D01*
X0102157Y0029201D01*
X0102157Y0031854D01*
X0101141Y0034305D01*
X0099266Y0036181D01*
X0096815Y0037196D01*
X0094162Y0037196D01*
X0091711Y0036181D01*
X0089835Y0034305D01*
X0088820Y0031854D01*
X0088820Y0029201D01*
X0088871Y0029076D01*
X0080196Y0020401D01*
X0049928Y0020401D01*
X0049928Y0027312D01*
X0050312Y0026648D01*
X0050868Y0025923D01*
X0051514Y0025277D01*
X0052238Y0024721D01*
X0053029Y0024264D01*
X0053873Y0023915D01*
X0054756Y0023678D01*
X0055661Y0023559D01*
X0056118Y0023559D01*
X0056118Y0030527D01*
X0056118Y0030527D01*
X0056118Y0023559D01*
X0056575Y0023559D01*
X0057481Y0023678D01*
X0058363Y0023915D01*
X0059207Y0024264D01*
X0059998Y0024721D01*
X0060723Y0025277D01*
X0061369Y0025923D01*
X0061925Y0026648D01*
X0062381Y0027439D01*
X0062731Y0028283D01*
X0062967Y0029165D01*
X0063087Y0030071D01*
X0063087Y0030527D01*
X0056118Y0030527D01*
X0056118Y0030528D01*
X0056118Y0037496D01*
X0055661Y0037496D01*
X0054756Y0037377D01*
X0053873Y0037140D01*
X0053029Y0036791D01*
X0052238Y0036334D01*
X0051514Y0035778D01*
X0050868Y0035132D01*
X0050312Y0034407D01*
X0049928Y0033744D01*
X0049928Y0037160D01*
X0049372Y0038502D01*
X0048345Y0039530D01*
X0040086Y0047789D01*
X0040086Y0061079D01*
X0069135Y0032030D01*
X0069135Y0025997D01*
X0069541Y0025016D01*
X0070292Y0024265D01*
X0071272Y0023859D01*
X0080334Y0023859D01*
X0081315Y0024265D01*
X0082065Y0025016D01*
X0082472Y0025997D01*
X0082472Y0035058D01*
X0082065Y0036039D01*
X0081315Y0036790D01*
X0080334Y0037196D01*
X0074300Y0037196D01*
X0045204Y0066293D01*
X0045204Y0076433D01*
X0045388Y0076250D01*
X0052868Y0068769D01*
X0054210Y0068213D01*
X0094788Y0068213D01*
X0094788Y0063461D01*
X0095194Y0062481D01*
X0095565Y0062110D01*
X0095072Y0060921D01*
X0095072Y0059189D01*
X0095735Y0057589D01*
X0096960Y0056365D01*
X0098559Y0055702D01*
X0100291Y0055702D01*
X0101891Y0056365D01*
X0103115Y0057589D01*
X0103778Y0059189D01*
X0103778Y0060921D01*
X0103610Y0061327D01*
X0103619Y0061324D01*
X0109011Y0061324D01*
X0109992Y0061730D01*
X0110743Y0062481D01*
X0111149Y0063461D01*
X0111149Y0068460D01*
X0110743Y0069441D01*
X0110165Y0070019D01*
X0110165Y0072032D01*
X0110192Y0072032D01*
X0111173Y0072439D01*
X0111924Y0073189D01*
X0112330Y0074170D01*
X0112330Y0079169D01*
X0111924Y0080149D01*
X0111173Y0080900D01*
X0110192Y0081306D01*
X0102831Y0081306D01*
X0101851Y0080900D01*
X0101100Y0080149D01*
X0100694Y0079169D01*
X0100694Y0075519D01*
X0092945Y0075519D01*
X0092945Y0083677D01*
X0079740Y0083677D01*
X0079740Y0087614D01*
X0092945Y0087614D01*
X0092945Y0092866D01*
X0093258Y0092553D01*
X0094285Y0091525D01*
X0095628Y0090969D01*
X0100875Y0090969D01*
X0100912Y0090880D01*
X0107809Y0083983D01*
X0110237Y0082977D01*
X0129443Y0082977D01*
X0129595Y0082914D01*
X0132248Y0082914D01*
X0134699Y0083929D01*
X0136575Y0085805D01*
X0137590Y0088256D01*
X0137590Y0090909D01*
X0136575Y0093360D01*
X0134699Y0095236D01*
X0132248Y0096251D01*
X0129595Y0096251D01*
X0129443Y0096188D01*
X0114287Y0096188D01*
X0110254Y0100222D01*
X0109063Y0100715D01*
X0109992Y0101100D01*
X0110743Y0101851D01*
X0111149Y0102831D01*
X0111149Y0107830D01*
X0110743Y0108811D01*
X0110165Y0109389D01*
X0110165Y0111402D01*
X0110192Y0111402D01*
X0111173Y0111809D01*
X0111924Y0112559D01*
X0112330Y0113540D01*
X0112330Y0118539D01*
X0111924Y0119519D01*
X0111173Y0120270D01*
X0110192Y0120676D01*
X0102831Y0120676D01*
X0101851Y0120270D01*
X0101100Y0119519D01*
X0100694Y0118539D01*
X0100694Y0113540D01*
X0100950Y0112920D01*
X0092567Y0112920D01*
X0092607Y0112980D01*
X0092831Y0113520D01*
X0092945Y0114093D01*
X0092945Y0123047D01*
X0079740Y0123047D01*
X0079740Y0126984D01*
X0092945Y0126984D01*
X0092945Y0132236D01*
X0093258Y0131923D01*
X0094285Y0130895D01*
X0095628Y0130339D01*
X0100875Y0130339D01*
X0100912Y0130250D01*
X0107809Y0123353D01*
X0110237Y0122347D01*
X0129443Y0122347D01*
X0129595Y0122284D01*
X0132248Y0122284D01*
X0134699Y0123299D01*
X0136575Y0125175D01*
X0137590Y0127626D01*
X0137590Y0130279D01*
X0136575Y0132730D01*
X0134699Y0134606D01*
X0132248Y0135621D01*
X0129595Y0135621D01*
X0129443Y0135558D01*
X0114287Y0135558D01*
X0110254Y0139592D01*
X0109063Y0140085D01*
X0109992Y0140470D01*
X0110743Y0141221D01*
X0111149Y0142201D01*
X0111149Y0147200D01*
X0110743Y0148181D01*
X0110165Y0148759D01*
X0110165Y0150772D01*
X0110192Y0150772D01*
X0111173Y0151179D01*
X0111924Y0151929D01*
X0112330Y0152910D01*
X0112330Y0157909D01*
X0111924Y0158890D01*
X0111173Y0159640D01*
X0110192Y0160046D01*
X0102831Y0160046D01*
X0101851Y0159640D01*
X0101100Y0158890D01*
X0100694Y0157909D01*
X0100694Y0154259D01*
X0092945Y0154259D01*
X0092945Y0162417D01*
X0079740Y0162417D01*
X0079740Y0166354D01*
X0092945Y0166354D01*
X0092945Y0172196D02*
X0093733Y0172196D01*
X0096193Y0180067D02*
X0165654Y0180067D01*
X0165654Y0176131D02*
X0113084Y0176131D01*
X0106208Y0164325D02*
X0079740Y0164325D01*
X0075803Y0164325D02*
X0043506Y0164325D01*
X0039571Y0160389D02*
X0062598Y0160389D01*
X0062598Y0156454D02*
X0035635Y0156454D01*
X0031700Y0152518D02*
X0052956Y0152518D01*
X0052465Y0148583D02*
X0029377Y0148583D01*
X0029377Y0144647D02*
X0052465Y0144647D01*
X0050530Y0141888D02*
X0050044Y0142213D01*
X0049504Y0142437D01*
X0048930Y0142551D01*
X0046669Y0142551D01*
X0044408Y0142551D01*
X0043835Y0142437D01*
X0043295Y0142213D01*
X0042808Y0141888D01*
X0042395Y0141475D01*
X0042070Y0140989D01*
X0041846Y0140449D01*
X0041732Y0139875D01*
X0041732Y0137417D01*
X0046669Y0137417D01*
X0046669Y0137417D01*
X0046669Y0137417D01*
X0046669Y0142551D01*
X0046669Y0137417D01*
X0046669Y0137417D01*
X0051606Y0137417D01*
X0051606Y0139875D01*
X0051492Y0140449D01*
X0051268Y0140989D01*
X0050944Y0141475D01*
X0050530Y0141888D01*
X0051383Y0140712D02*
X0052465Y0140712D01*
X0052465Y0136776D02*
X0051606Y0136776D01*
X0051306Y0132841D02*
X0052465Y0132841D01*
X0052465Y0128905D02*
X0051306Y0128905D01*
X0052409Y0124970D02*
X0052465Y0124970D01*
X0052465Y0121034D02*
X0052207Y0121034D01*
X0052236Y0117099D02*
X0052465Y0117099D01*
X0059771Y0117099D02*
X0062598Y0117099D01*
X0062598Y0114093D02*
X0062712Y0113520D01*
X0062936Y0112980D01*
X0062976Y0112920D01*
X0059771Y0112920D01*
X0059771Y0140923D01*
X0061158Y0140348D01*
X0062889Y0140348D01*
X0064489Y0141011D01*
X0064527Y0141048D01*
X0064701Y0141048D01*
X0065189Y0140560D01*
X0066387Y0140064D01*
X0070440Y0140064D01*
X0071637Y0140560D01*
X0071866Y0140789D01*
X0072095Y0140560D01*
X0073293Y0140064D01*
X0077345Y0140064D01*
X0078543Y0140560D01*
X0079031Y0141048D01*
X0080013Y0141048D01*
X0080591Y0140470D01*
X0081572Y0140064D01*
X0086964Y0140064D01*
X0087614Y0140333D01*
X0087898Y0140215D01*
X0087898Y0138614D01*
X0079740Y0138614D01*
X0079740Y0126984D01*
X0075803Y0126984D01*
X0075803Y0123047D01*
X0062598Y0123047D01*
X0062598Y0114093D01*
X0062860Y0113163D02*
X0059771Y0113163D01*
X0059771Y0121034D02*
X0062598Y0121034D01*
X0059771Y0124970D02*
X0075803Y0124970D01*
X0075803Y0126984D02*
X0062598Y0126984D01*
X0062598Y0135938D01*
X0062712Y0136512D01*
X0062936Y0137052D01*
X0063261Y0137538D01*
X0063675Y0137951D01*
X0064161Y0138276D01*
X0064701Y0138500D01*
X0065275Y0138614D01*
X0075803Y0138614D01*
X0075803Y0126984D01*
X0075803Y0128905D02*
X0079740Y0128905D01*
X0079740Y0132841D02*
X0075803Y0132841D01*
X0075803Y0136776D02*
X0079740Y0136776D01*
X0080349Y0140712D02*
X0078695Y0140712D01*
X0071943Y0140712D02*
X0071789Y0140712D01*
X0065038Y0140712D02*
X0063767Y0140712D01*
X0060280Y0140712D02*
X0059771Y0140712D01*
X0059771Y0136776D02*
X0062822Y0136776D01*
X0062598Y0132841D02*
X0059771Y0132841D01*
X0059771Y0128905D02*
X0062598Y0128905D01*
X0046669Y0140712D02*
X0046669Y0140712D01*
X0041955Y0140712D02*
X0029377Y0140712D01*
X0029377Y0136776D02*
X0041732Y0136776D01*
X0037635Y0132841D02*
X0029377Y0132841D01*
X0029377Y0128905D02*
X0037675Y0128905D01*
X0042347Y0124970D02*
X0030755Y0124970D01*
X0030553Y0121034D02*
X0033276Y0121034D01*
X0032780Y0117099D02*
X0030582Y0117099D01*
X0031055Y0113163D02*
X0032780Y0113163D01*
X0032780Y0109228D02*
X0031055Y0109228D01*
X0031055Y0105292D02*
X0032780Y0105292D01*
X0032780Y0101356D02*
X0030744Y0101356D01*
X0030989Y0097421D02*
X0032780Y0097421D01*
X0032780Y0093485D02*
X0031055Y0093485D01*
X0032780Y0089550D02*
X0005637Y0089550D01*
X0005637Y0093485D02*
X0020394Y0093485D01*
X0020394Y0094032D02*
X0025724Y0094032D01*
X0025724Y0099031D01*
X0020394Y0099031D01*
X0020394Y0097755D01*
X0020508Y0097181D01*
X0020732Y0096641D01*
X0020805Y0096531D01*
X0020732Y0096422D01*
X0020508Y0095882D01*
X0020394Y0095308D01*
X0020394Y0094032D01*
X0020460Y0097421D02*
X0005637Y0097421D01*
X0005637Y0101356D02*
X0020704Y0101356D01*
X0020732Y0101422D02*
X0020508Y0100882D01*
X0020394Y0100308D01*
X0020394Y0099032D01*
X0025724Y0099032D01*
X0025724Y0104031D01*
X0020394Y0104031D01*
X0020394Y0102755D01*
X0020508Y0102181D01*
X0020732Y0101641D01*
X0020805Y0101531D01*
X0020732Y0101422D01*
X0020394Y0104032D02*
X0025724Y0104032D01*
X0025724Y0109031D01*
X0020394Y0109031D01*
X0020394Y0107755D01*
X0020508Y0107181D01*
X0020732Y0106641D01*
X0020805Y0106531D01*
X0020732Y0106422D01*
X0020508Y0105882D01*
X0020394Y0105308D01*
X0020394Y0104032D01*
X0020394Y0105292D02*
X0005637Y0105292D01*
X0005637Y0109228D02*
X0020394Y0109228D01*
X0020394Y0109032D02*
X0025724Y0109032D01*
X0025724Y0114031D01*
X0020394Y0114031D01*
X0020394Y0112755D01*
X0020508Y0112181D01*
X0020732Y0111641D01*
X0020805Y0111531D01*
X0020732Y0111422D01*
X0020508Y0110882D01*
X0020394Y0110308D01*
X0020394Y0109032D01*
X0020394Y0113163D02*
X0005637Y0113163D01*
X0005637Y0117099D02*
X0015596Y0117099D01*
X0015064Y0121034D02*
X0005637Y0121034D01*
X0005637Y0124970D02*
X0015064Y0124970D01*
X0015064Y0128905D02*
X0005637Y0128905D01*
X0005637Y0132841D02*
X0015064Y0132841D01*
X0015064Y0136776D02*
X0005637Y0136776D01*
X0005637Y0140712D02*
X0015064Y0140712D01*
X0015064Y0144647D02*
X0005637Y0144647D01*
X0005637Y0148583D02*
X0015064Y0148583D01*
X0015064Y0152518D02*
X0005637Y0152518D01*
X0005637Y0156454D02*
X0015064Y0156454D01*
X0015064Y0160389D02*
X0005637Y0160389D01*
X0005637Y0164325D02*
X0015064Y0164325D01*
X0015064Y0168260D02*
X0005637Y0168260D01*
X0005637Y0172196D02*
X0015064Y0172196D01*
X0015064Y0176131D02*
X0005637Y0176131D01*
X0005637Y0180067D02*
X0015064Y0180067D01*
X0015064Y0184002D02*
X0005637Y0184002D01*
X0005637Y0187938D02*
X0015064Y0187938D01*
X0015064Y0191873D02*
X0005637Y0191873D01*
X0005637Y0195809D02*
X0015064Y0195809D01*
X0015064Y0199744D02*
X0005637Y0199744D01*
X0005637Y0203680D02*
X0015064Y0203680D01*
X0016485Y0210930D02*
X0013074Y0210930D01*
X0009923Y0212235D01*
X0007511Y0214647D01*
X0006206Y0217798D01*
X0006206Y0221209D01*
X0007511Y0224361D01*
X0009923Y0226773D01*
X0013074Y0228078D01*
X0016485Y0228078D01*
X0019636Y0226773D01*
X0022048Y0224361D01*
X0023354Y0221209D01*
X0023354Y0217798D01*
X0022048Y0214647D01*
X0019636Y0212235D01*
X0016485Y0210930D01*
X0017984Y0211551D02*
X0153307Y0211551D01*
X0154806Y0210930D02*
X0151655Y0212235D01*
X0149243Y0214647D01*
X0147938Y0217798D01*
X0147938Y0221209D01*
X0149243Y0224361D01*
X0151655Y0226773D01*
X0154806Y0228078D01*
X0158217Y0228078D01*
X0161369Y0226773D01*
X0163780Y0224361D01*
X0165086Y0221209D01*
X0165086Y0217798D01*
X0163780Y0214647D01*
X0161369Y0212235D01*
X0158217Y0210930D01*
X0154806Y0210930D01*
X0159717Y0211551D02*
X0165654Y0211551D01*
X0165654Y0215487D02*
X0164128Y0215487D01*
X0165086Y0219422D02*
X0165654Y0219422D01*
X0165654Y0223358D02*
X0164196Y0223358D01*
X0165654Y0227293D02*
X0160112Y0227293D01*
X0165654Y0228646D02*
X0165654Y0005637D01*
X0005637Y0005637D01*
X0005637Y0228646D01*
X0165654Y0228646D01*
X0152912Y0227293D02*
X0018380Y0227293D01*
X0022464Y0223358D02*
X0148828Y0223358D01*
X0147938Y0219422D02*
X0023354Y0219422D01*
X0022396Y0215487D02*
X0148895Y0215487D01*
X0165654Y0207616D02*
X0005637Y0207616D01*
X0005637Y0211551D02*
X0011575Y0211551D01*
X0007163Y0215487D02*
X0005637Y0215487D01*
X0005637Y0219422D02*
X0006206Y0219422D01*
X0005637Y0223358D02*
X0007095Y0223358D01*
X0005637Y0227293D02*
X0011179Y0227293D01*
X0022369Y0200103D02*
X0029765Y0200103D01*
X0029765Y0191351D01*
X0030171Y0190370D01*
X0030921Y0189620D01*
X0031902Y0189213D01*
X0040964Y0189213D01*
X0041945Y0189620D01*
X0042695Y0190370D01*
X0043102Y0191351D01*
X0043102Y0200103D01*
X0050574Y0200103D01*
X0050312Y0199762D01*
X0049855Y0198971D01*
X0049505Y0198127D01*
X0049269Y0197244D01*
X0049150Y0196339D01*
X0049150Y0195882D01*
X0056118Y0195882D01*
X0056118Y0195882D01*
X0049150Y0195882D01*
X0049150Y0195425D01*
X0049269Y0194519D01*
X0049505Y0193637D01*
X0049855Y0192793D01*
X0050312Y0192002D01*
X0050868Y0191277D01*
X0051514Y0190631D01*
X0052238Y0190075D01*
X0053029Y0189619D01*
X0053873Y0189269D01*
X0054756Y0189033D01*
X0055661Y0188913D01*
X0056118Y0188913D01*
X0056118Y0195882D01*
X0063087Y0195882D01*
X0063087Y0196339D01*
X0062967Y0197244D01*
X0062731Y0198127D01*
X0062381Y0198971D01*
X0061925Y0199762D01*
X0061663Y0200103D01*
X0066416Y0200103D01*
X0069135Y0197385D01*
X0069135Y0191351D01*
X0069541Y0190370D01*
X0070219Y0189692D01*
X0059334Y0189692D01*
X0059998Y0190075D01*
X0060723Y0190631D01*
X0061369Y0191277D01*
X0061925Y0192002D01*
X0062381Y0192793D01*
X0062731Y0193637D01*
X0062967Y0194519D01*
X0063087Y0195425D01*
X0063087Y0195882D01*
X0056118Y0195882D01*
X0056118Y0195882D01*
X0056118Y0195882D01*
X0056118Y0188913D01*
X0056575Y0188913D01*
X0057481Y0189033D01*
X0058205Y0189227D01*
X0057986Y0189136D01*
X0023655Y0154805D01*
X0022628Y0153778D01*
X0022369Y0153154D01*
X0022369Y0200103D01*
X0022369Y0199744D02*
X0029765Y0199744D01*
X0029765Y0195809D02*
X0022369Y0195809D01*
X0022369Y0191873D02*
X0029765Y0191873D01*
X0022369Y0187938D02*
X0056788Y0187938D01*
X0056118Y0191873D02*
X0056118Y0191873D01*
X0056118Y0195809D02*
X0056118Y0195809D01*
X0050410Y0191873D02*
X0043102Y0191873D01*
X0043102Y0195809D02*
X0049150Y0195809D01*
X0050302Y0199744D02*
X0043102Y0199744D01*
X0052852Y0184002D02*
X0022369Y0184002D01*
X0022369Y0180067D02*
X0048917Y0180067D01*
X0044981Y0176131D02*
X0022369Y0176131D01*
X0022369Y0172196D02*
X0041046Y0172196D01*
X0037110Y0168260D02*
X0022369Y0168260D01*
X0022369Y0164325D02*
X0033175Y0164325D01*
X0029239Y0160389D02*
X0022369Y0160389D01*
X0022369Y0156454D02*
X0025304Y0156454D01*
X0023655Y0154805D02*
X0023655Y0154805D01*
X0047442Y0168260D02*
X0062598Y0168260D01*
X0062598Y0172196D02*
X0051377Y0172196D01*
X0055313Y0176131D02*
X0060312Y0176131D01*
X0061826Y0191873D02*
X0069135Y0191873D01*
X0069135Y0195809D02*
X0063087Y0195809D01*
X0061935Y0199744D02*
X0066775Y0199744D01*
X0073171Y0203680D02*
X0165654Y0203680D01*
X0165654Y0199744D02*
X0101056Y0199744D01*
X0102157Y0195809D02*
X0165654Y0195809D01*
X0165654Y0191873D02*
X0100910Y0191873D01*
X0095000Y0184002D02*
X0165654Y0184002D01*
X0165654Y0187938D02*
X0092710Y0187938D01*
X0088820Y0195809D02*
X0082472Y0195809D01*
X0082472Y0199744D02*
X0089920Y0199744D01*
X0086314Y0191873D02*
X0082472Y0191873D01*
X0092945Y0160389D02*
X0165654Y0160389D01*
X0165654Y0156454D02*
X0112330Y0156454D01*
X0112168Y0152518D02*
X0124253Y0152518D01*
X0124253Y0153169D02*
X0124253Y0144107D01*
X0124659Y0143126D01*
X0125410Y0142376D01*
X0126390Y0141969D01*
X0135452Y0141969D01*
X0136433Y0142376D01*
X0137184Y0143126D01*
X0137590Y0144107D01*
X0137590Y0153169D01*
X0137184Y0154149D01*
X0136433Y0154900D01*
X0135452Y0155306D01*
X0126390Y0155306D01*
X0125410Y0154900D01*
X0124659Y0154149D01*
X0124253Y0153169D01*
X0124253Y0148583D02*
X0110341Y0148583D01*
X0111149Y0144647D02*
X0124253Y0144647D01*
X0113069Y0136776D02*
X0165654Y0136776D01*
X0165654Y0132841D02*
X0136464Y0132841D01*
X0137590Y0128905D02*
X0165654Y0128905D01*
X0165654Y0124970D02*
X0136369Y0124970D01*
X0135452Y0115936D02*
X0136433Y0115530D01*
X0137184Y0114779D01*
X0137590Y0113799D01*
X0137590Y0104737D01*
X0137184Y0103756D01*
X0136433Y0103005D01*
X0135452Y0102599D01*
X0126390Y0102599D01*
X0125410Y0103005D01*
X0124659Y0103756D01*
X0124253Y0104737D01*
X0124253Y0113799D01*
X0124659Y0114779D01*
X0125410Y0115530D01*
X0126390Y0115936D01*
X0135452Y0115936D01*
X0137590Y0113163D02*
X0165654Y0113163D01*
X0165654Y0117099D02*
X0112330Y0117099D01*
X0112174Y0113163D02*
X0124253Y0113163D01*
X0124253Y0109228D02*
X0110326Y0109228D01*
X0111149Y0105292D02*
X0124253Y0105292D01*
X0113054Y0097421D02*
X0165654Y0097421D01*
X0165654Y0101356D02*
X0110248Y0101356D01*
X0102242Y0089550D02*
X0092945Y0089550D01*
X0092945Y0081679D02*
X0165654Y0081679D01*
X0165654Y0077743D02*
X0112330Y0077743D01*
X0112180Y0073808D02*
X0124253Y0073808D01*
X0124253Y0074428D02*
X0124253Y0065367D01*
X0124659Y0064386D01*
X0125410Y0063635D01*
X0126390Y0063229D01*
X0135452Y0063229D01*
X0136433Y0063635D01*
X0137184Y0064386D01*
X0137590Y0065367D01*
X0137590Y0074428D01*
X0137184Y0075409D01*
X0136433Y0076160D01*
X0135452Y0076566D01*
X0126390Y0076566D01*
X0125410Y0076160D01*
X0124659Y0075409D01*
X0124253Y0074428D01*
X0124253Y0069872D02*
X0110311Y0069872D01*
X0111149Y0065937D02*
X0124253Y0065937D01*
X0127144Y0055866D02*
X0129595Y0056881D01*
X0132248Y0056881D01*
X0134699Y0055866D01*
X0136575Y0053990D01*
X0137590Y0051539D01*
X0137590Y0048886D01*
X0136575Y0046435D01*
X0134699Y0044559D01*
X0132248Y0043544D01*
X0129595Y0043544D01*
X0127144Y0044559D01*
X0125268Y0046435D01*
X0124253Y0048886D01*
X0124253Y0051539D01*
X0125268Y0053990D01*
X0127144Y0055866D01*
X0125408Y0054130D02*
X0057366Y0054130D01*
X0061302Y0050195D02*
X0124253Y0050195D01*
X0125444Y0046259D02*
X0065237Y0046259D01*
X0069173Y0042324D02*
X0165654Y0042324D01*
X0165654Y0046259D02*
X0136399Y0046259D01*
X0137590Y0050195D02*
X0165654Y0050195D01*
X0165654Y0054130D02*
X0136434Y0054130D01*
X0137590Y0065937D02*
X0165654Y0065937D01*
X0165654Y0069872D02*
X0137590Y0069872D01*
X0137590Y0073808D02*
X0165654Y0073808D01*
X0165654Y0085614D02*
X0136384Y0085614D01*
X0137590Y0089550D02*
X0165654Y0089550D01*
X0165654Y0093485D02*
X0136449Y0093485D01*
X0137590Y0105292D02*
X0165654Y0105292D01*
X0165654Y0109228D02*
X0137590Y0109228D01*
X0137590Y0144647D02*
X0165654Y0144647D01*
X0165654Y0140712D02*
X0110234Y0140712D01*
X0102257Y0128905D02*
X0092945Y0128905D01*
X0092945Y0121034D02*
X0165654Y0121034D01*
X0165654Y0148583D02*
X0137590Y0148583D01*
X0137590Y0152518D02*
X0165654Y0152518D01*
X0165654Y0164325D02*
X0136354Y0164325D01*
X0137590Y0168260D02*
X0165654Y0168260D01*
X0165654Y0172196D02*
X0136479Y0172196D01*
X0106193Y0124970D02*
X0079740Y0124970D01*
X0092945Y0117099D02*
X0100694Y0117099D01*
X0100850Y0113163D02*
X0092683Y0113163D01*
X0087614Y0100963D02*
X0087898Y0100845D01*
X0087898Y0099244D01*
X0079740Y0099244D01*
X0079740Y0087614D01*
X0075803Y0087614D01*
X0075803Y0083677D01*
X0062598Y0083677D01*
X0062598Y0075519D01*
X0056450Y0075519D01*
X0051109Y0080859D01*
X0051109Y0090726D01*
X0051252Y0090785D01*
X0052002Y0091536D01*
X0052409Y0092516D01*
X0052409Y0095379D01*
X0056845Y0095379D01*
X0058187Y0095935D01*
X0059215Y0096962D01*
X0059771Y0098305D01*
X0059771Y0101521D01*
X0061158Y0100946D01*
X0062889Y0100946D01*
X0064489Y0101609D01*
X0064527Y0101646D01*
X0064733Y0101646D01*
X0065189Y0101190D01*
X0066387Y0100694D01*
X0070440Y0100694D01*
X0071637Y0101190D01*
X0071866Y0101419D01*
X0072095Y0101190D01*
X0073293Y0100694D01*
X0077345Y0100694D01*
X0078543Y0101190D01*
X0079031Y0101678D01*
X0080013Y0101678D01*
X0080591Y0101100D01*
X0081572Y0100694D01*
X0086964Y0100694D01*
X0087614Y0100963D01*
X0080334Y0101356D02*
X0078710Y0101356D01*
X0075803Y0099244D02*
X0065275Y0099244D01*
X0064701Y0099130D01*
X0064161Y0098906D01*
X0063675Y0098581D01*
X0063261Y0098168D01*
X0062936Y0097682D01*
X0062712Y0097141D01*
X0062598Y0096568D01*
X0062598Y0087614D01*
X0075803Y0087614D01*
X0075803Y0099244D01*
X0075803Y0097421D02*
X0079740Y0097421D01*
X0079740Y0093485D02*
X0075803Y0093485D01*
X0075803Y0089550D02*
X0079740Y0089550D01*
X0079740Y0085614D02*
X0106178Y0085614D01*
X0100694Y0077743D02*
X0092945Y0077743D01*
X0094788Y0065937D02*
X0045560Y0065937D01*
X0045204Y0069872D02*
X0051765Y0069872D01*
X0047830Y0073808D02*
X0045204Y0073808D01*
X0051109Y0081679D02*
X0062598Y0081679D01*
X0062598Y0077743D02*
X0054226Y0077743D01*
X0051109Y0085614D02*
X0075803Y0085614D01*
X0071928Y0101356D02*
X0071804Y0101356D01*
X0065023Y0101356D02*
X0063879Y0101356D01*
X0060168Y0101356D02*
X0059771Y0101356D01*
X0059405Y0097421D02*
X0062828Y0097421D01*
X0062598Y0093485D02*
X0052409Y0093485D01*
X0051109Y0089550D02*
X0062598Y0089550D01*
X0049495Y0062001D02*
X0095520Y0062001D01*
X0095538Y0058066D02*
X0053431Y0058066D01*
X0050970Y0050195D02*
X0040086Y0050195D01*
X0040086Y0054130D02*
X0047035Y0054130D01*
X0043099Y0058066D02*
X0040086Y0058066D01*
X0032780Y0058066D02*
X0005637Y0058066D01*
X0005637Y0054130D02*
X0032780Y0054130D01*
X0032780Y0050195D02*
X0005637Y0050195D01*
X0005637Y0046259D02*
X0032780Y0046259D01*
X0034364Y0043179D02*
X0034364Y0043179D01*
X0035219Y0042324D02*
X0005637Y0042324D01*
X0005637Y0038388D02*
X0039155Y0038388D01*
X0041615Y0046259D02*
X0054906Y0046259D01*
X0058841Y0042324D02*
X0045551Y0042324D01*
X0048345Y0039530D02*
X0048345Y0039530D01*
X0049419Y0038388D02*
X0062777Y0038388D01*
X0060723Y0035778D02*
X0059998Y0036334D01*
X0059207Y0036791D01*
X0058363Y0037140D01*
X0057481Y0037377D01*
X0056575Y0037496D01*
X0056118Y0037496D01*
X0056118Y0030528D01*
X0056118Y0030528D01*
X0063087Y0030528D01*
X0063087Y0030984D01*
X0062967Y0031890D01*
X0062731Y0032772D01*
X0062381Y0033616D01*
X0061925Y0034407D01*
X0061369Y0035132D01*
X0060723Y0035778D01*
X0061890Y0034453D02*
X0066712Y0034453D01*
X0069135Y0030517D02*
X0063087Y0030517D01*
X0061874Y0026582D02*
X0069135Y0026582D01*
X0073108Y0038388D02*
X0165654Y0038388D01*
X0165654Y0034453D02*
X0137890Y0034453D01*
X0137890Y0034820D02*
X0137776Y0035393D01*
X0137552Y0035934D01*
X0137227Y0036420D01*
X0136814Y0036833D01*
X0136327Y0037158D01*
X0135787Y0037382D01*
X0135214Y0037496D01*
X0130921Y0037496D01*
X0126629Y0037496D01*
X0126055Y0037382D01*
X0125515Y0037158D01*
X0125029Y0036833D01*
X0124615Y0036420D01*
X0124291Y0035934D01*
X0124067Y0035393D01*
X0123953Y0034820D01*
X0123953Y0030528D01*
X0130921Y0030528D01*
X0130921Y0037496D01*
X0130921Y0030528D01*
X0130921Y0030528D01*
X0130921Y0030527D01*
X0130921Y0030527D01*
X0130921Y0023559D01*
X0126629Y0023559D01*
X0126055Y0023673D01*
X0125515Y0023897D01*
X0125029Y0024222D01*
X0124615Y0024635D01*
X0124291Y0025121D01*
X0124067Y0025662D01*
X0123953Y0026235D01*
X0123953Y0030527D01*
X0130921Y0030527D01*
X0130921Y0023559D01*
X0135214Y0023559D01*
X0135787Y0023673D01*
X0136327Y0023897D01*
X0136814Y0024222D01*
X0137227Y0024635D01*
X0137552Y0025121D01*
X0137776Y0025662D01*
X0137890Y0026235D01*
X0137890Y0030527D01*
X0130921Y0030527D01*
X0130921Y0030528D01*
X0137890Y0030528D01*
X0137890Y0034820D01*
X0137890Y0030517D02*
X0165654Y0030517D01*
X0165654Y0026582D02*
X0137890Y0026582D01*
X0130921Y0026582D02*
X0130921Y0026582D01*
X0130921Y0030517D02*
X0130921Y0030517D01*
X0130921Y0034453D02*
X0130921Y0034453D01*
X0123953Y0034453D02*
X0100994Y0034453D01*
X0102157Y0030517D02*
X0123953Y0030517D01*
X0123953Y0026582D02*
X0100973Y0026582D01*
X0092772Y0022646D02*
X0153098Y0022646D01*
X0151655Y0022048D02*
X0149243Y0019636D01*
X0147938Y0016485D01*
X0147938Y0013074D01*
X0149243Y0009923D01*
X0151655Y0007511D01*
X0154806Y0006206D01*
X0158217Y0006206D01*
X0161369Y0007511D01*
X0163780Y0009923D01*
X0165086Y0013074D01*
X0165086Y0016485D01*
X0163780Y0019636D01*
X0161369Y0022048D01*
X0158217Y0023354D01*
X0154806Y0023354D01*
X0151655Y0022048D01*
X0148860Y0018711D02*
X0088837Y0018711D01*
X0084901Y0014775D02*
X0147938Y0014775D01*
X0148863Y0010840D02*
X0022428Y0010840D01*
X0022048Y0009923D02*
X0023354Y0013074D01*
X0023354Y0016485D01*
X0022048Y0019636D01*
X0019636Y0022048D01*
X0016485Y0023354D01*
X0013074Y0023354D01*
X0009923Y0022048D01*
X0007511Y0019636D01*
X0006206Y0016485D01*
X0006206Y0013074D01*
X0007511Y0009923D01*
X0009923Y0007511D01*
X0013074Y0006206D01*
X0016485Y0006206D01*
X0019636Y0007511D01*
X0022048Y0009923D01*
X0018171Y0006904D02*
X0153120Y0006904D01*
X0159904Y0006904D02*
X0165654Y0006904D01*
X0165654Y0010840D02*
X0164160Y0010840D01*
X0165086Y0014775D02*
X0165654Y0014775D01*
X0165654Y0018711D02*
X0164164Y0018711D01*
X0165654Y0022646D02*
X0159925Y0022646D01*
X0165654Y0058066D02*
X0103313Y0058066D01*
X0110263Y0062001D02*
X0165654Y0062001D01*
X0100694Y0156454D02*
X0092945Y0156454D01*
X0032780Y0085614D02*
X0005637Y0085614D01*
X0005637Y0081679D02*
X0032780Y0081679D01*
X0032780Y0077743D02*
X0005637Y0077743D01*
X0005637Y0073808D02*
X0032780Y0073808D01*
X0032780Y0069872D02*
X0005637Y0069872D01*
X0005637Y0065937D02*
X0032780Y0065937D01*
X0032780Y0062001D02*
X0005637Y0062001D01*
X0005637Y0034453D02*
X0029765Y0034453D01*
X0029765Y0030517D02*
X0005637Y0030517D01*
X0005637Y0026582D02*
X0029765Y0026582D01*
X0022432Y0018711D02*
X0042623Y0018711D01*
X0043139Y0014775D02*
X0023354Y0014775D01*
X0018193Y0022646D02*
X0042623Y0022646D01*
X0049928Y0022646D02*
X0082441Y0022646D01*
X0082472Y0026582D02*
X0086376Y0026582D01*
X0088820Y0030517D02*
X0082472Y0030517D01*
X0082472Y0034453D02*
X0089983Y0034453D01*
X0056118Y0034453D02*
X0056118Y0034453D01*
X0056118Y0030517D02*
X0056118Y0030517D01*
X0056118Y0026582D02*
X0056118Y0026582D01*
X0050362Y0026582D02*
X0049928Y0026582D01*
X0049928Y0034453D02*
X0050346Y0034453D01*
X0011366Y0022646D02*
X0005637Y0022646D01*
X0005637Y0018711D02*
X0007127Y0018711D01*
X0006206Y0014775D02*
X0005637Y0014775D01*
X0005637Y0010840D02*
X0007131Y0010840D01*
X0005637Y0006904D02*
X0011388Y0006904D01*
X0025724Y0093485D02*
X0025724Y0093485D01*
X0025724Y0097421D02*
X0025724Y0097421D01*
X0025724Y0101356D02*
X0025724Y0101356D01*
X0025724Y0105292D02*
X0025724Y0105292D01*
X0025724Y0109228D02*
X0025724Y0109228D01*
X0025724Y0113163D02*
X0025724Y0113163D01*
D20*
X0041551Y0130921D03*
X0061630Y0125016D03*
X0062024Y0144701D03*
X0062024Y0164386D03*
X0062024Y0180134D03*
X0099425Y0138795D03*
X0099425Y0099425D03*
X0099425Y0060055D03*
X0062024Y0105299D03*
X0061236Y0085646D03*
D21*
X0056118Y0099031D02*
X0056118Y0109268D01*
X0106512Y0109268D01*
X0106315Y0109268D01*
X0106315Y0105331D01*
X0106512Y0109268D02*
X0106512Y0116039D01*
X0099622Y0105331D02*
X0099622Y0099425D01*
X0099425Y0099425D01*
X0096354Y0094622D02*
X0106512Y0094622D01*
X0096354Y0094622D02*
X0091551Y0099425D01*
X0091551Y0104740D01*
X0090961Y0105331D01*
X0084268Y0105331D02*
X0075319Y0105331D01*
X0068413Y0105331D02*
X0068382Y0105299D01*
X0062024Y0105299D01*
X0056118Y0099031D02*
X0047378Y0099031D01*
X0047378Y0094031D02*
X0047457Y0093953D01*
X0047457Y0079346D01*
X0054937Y0071866D01*
X0106512Y0071866D01*
X0106512Y0065961D01*
X0106315Y0065961D01*
X0106512Y0071866D02*
X0106512Y0076669D01*
X0099622Y0065961D02*
X0099622Y0060055D01*
X0099425Y0060055D01*
X0095488Y0030528D02*
X0081709Y0016748D01*
X0046276Y0016748D01*
X0046276Y0036433D01*
X0036433Y0046276D01*
X0036433Y0119110D01*
X0036512Y0119031D01*
X0047378Y0119031D01*
X0047378Y0114031D02*
X0041591Y0114031D01*
X0041551Y0113992D01*
X0041551Y0064780D01*
X0075803Y0030528D01*
X0052181Y0104031D02*
X0047378Y0104031D01*
X0052181Y0104031D02*
X0052181Y0113205D01*
X0056118Y0113205D01*
X0056118Y0150606D01*
X0106512Y0150606D01*
X0106512Y0155409D01*
X0106512Y0150606D02*
X0106512Y0144701D01*
X0106315Y0144701D01*
X0099622Y0144701D02*
X0099622Y0138795D01*
X0099425Y0138795D01*
X0096354Y0133992D02*
X0106512Y0133992D01*
X0096354Y0133992D02*
X0091551Y0138795D01*
X0091551Y0144110D01*
X0090961Y0144701D01*
X0084268Y0144701D02*
X0075319Y0144701D01*
X0068413Y0144701D02*
X0062024Y0144701D01*
X0046866Y0130724D02*
X0046866Y0124543D01*
X0047378Y0124031D01*
X0046866Y0130724D02*
X0046669Y0130724D01*
X0041551Y0130724D01*
X0041551Y0130921D01*
X0025724Y0124031D02*
X0025724Y0151709D01*
X0060055Y0186039D01*
X0085646Y0186039D01*
X0095488Y0195882D01*
X0090961Y0180134D02*
X0097732Y0173362D01*
X0106512Y0173362D01*
X0084268Y0180134D02*
X0075319Y0180134D01*
X0068413Y0180134D02*
X0062024Y0180134D01*
X0075803Y0195882D02*
X0067929Y0203756D01*
X0018717Y0203756D01*
X0018717Y0119110D01*
X0018795Y0119031D01*
X0025724Y0119031D01*
D22*
X0106512Y0133992D02*
X0111551Y0128953D01*
X0130921Y0128953D01*
X0106512Y0094622D02*
X0111551Y0089583D01*
X0130921Y0089583D01*
X0130921Y0168323D02*
X0111551Y0168323D01*
X0106512Y0173362D01*
M02*
