G75*
%MOIN*%
%OFA0B0*%
%FSLAX25Y25*%
%IPPOS*%
%LPD*%
%AMOC8*
5,1,8,0,0,1.08239X$1,22.5*
%
%ADD10C,0.00000*%
%ADD11R,0.08000X0.08000*%
%ADD12C,0.08000*%
%ADD13C,0.01969*%
%ADD14C,0.03369*%
%ADD15C,0.11811*%
%ADD16C,0.03937*%
D10*
X0002969Y0002969D02*
X0002969Y0231315D01*
X0168323Y0231315D01*
X0168323Y0002969D01*
X0002969Y0002969D01*
X0008874Y0014780D02*
X0008876Y0014933D01*
X0008882Y0015087D01*
X0008892Y0015240D01*
X0008906Y0015392D01*
X0008924Y0015545D01*
X0008946Y0015696D01*
X0008971Y0015847D01*
X0009001Y0015998D01*
X0009035Y0016148D01*
X0009072Y0016296D01*
X0009113Y0016444D01*
X0009158Y0016590D01*
X0009207Y0016736D01*
X0009260Y0016880D01*
X0009316Y0017022D01*
X0009376Y0017163D01*
X0009440Y0017303D01*
X0009507Y0017441D01*
X0009578Y0017577D01*
X0009653Y0017711D01*
X0009730Y0017843D01*
X0009812Y0017973D01*
X0009896Y0018101D01*
X0009984Y0018227D01*
X0010075Y0018350D01*
X0010169Y0018471D01*
X0010267Y0018589D01*
X0010367Y0018705D01*
X0010471Y0018818D01*
X0010577Y0018929D01*
X0010686Y0019037D01*
X0010798Y0019142D01*
X0010912Y0019243D01*
X0011030Y0019342D01*
X0011149Y0019438D01*
X0011271Y0019531D01*
X0011396Y0019620D01*
X0011523Y0019707D01*
X0011652Y0019789D01*
X0011783Y0019869D01*
X0011916Y0019945D01*
X0012051Y0020018D01*
X0012188Y0020087D01*
X0012327Y0020152D01*
X0012467Y0020214D01*
X0012609Y0020272D01*
X0012752Y0020327D01*
X0012897Y0020378D01*
X0013043Y0020425D01*
X0013190Y0020468D01*
X0013338Y0020507D01*
X0013487Y0020543D01*
X0013637Y0020574D01*
X0013788Y0020602D01*
X0013939Y0020626D01*
X0014092Y0020646D01*
X0014244Y0020662D01*
X0014397Y0020674D01*
X0014550Y0020682D01*
X0014703Y0020686D01*
X0014857Y0020686D01*
X0015010Y0020682D01*
X0015163Y0020674D01*
X0015316Y0020662D01*
X0015468Y0020646D01*
X0015621Y0020626D01*
X0015772Y0020602D01*
X0015923Y0020574D01*
X0016073Y0020543D01*
X0016222Y0020507D01*
X0016370Y0020468D01*
X0016517Y0020425D01*
X0016663Y0020378D01*
X0016808Y0020327D01*
X0016951Y0020272D01*
X0017093Y0020214D01*
X0017233Y0020152D01*
X0017372Y0020087D01*
X0017509Y0020018D01*
X0017644Y0019945D01*
X0017777Y0019869D01*
X0017908Y0019789D01*
X0018037Y0019707D01*
X0018164Y0019620D01*
X0018289Y0019531D01*
X0018411Y0019438D01*
X0018530Y0019342D01*
X0018648Y0019243D01*
X0018762Y0019142D01*
X0018874Y0019037D01*
X0018983Y0018929D01*
X0019089Y0018818D01*
X0019193Y0018705D01*
X0019293Y0018589D01*
X0019391Y0018471D01*
X0019485Y0018350D01*
X0019576Y0018227D01*
X0019664Y0018101D01*
X0019748Y0017973D01*
X0019830Y0017843D01*
X0019907Y0017711D01*
X0019982Y0017577D01*
X0020053Y0017441D01*
X0020120Y0017303D01*
X0020184Y0017163D01*
X0020244Y0017022D01*
X0020300Y0016880D01*
X0020353Y0016736D01*
X0020402Y0016590D01*
X0020447Y0016444D01*
X0020488Y0016296D01*
X0020525Y0016148D01*
X0020559Y0015998D01*
X0020589Y0015847D01*
X0020614Y0015696D01*
X0020636Y0015545D01*
X0020654Y0015392D01*
X0020668Y0015240D01*
X0020678Y0015087D01*
X0020684Y0014933D01*
X0020686Y0014780D01*
X0020684Y0014627D01*
X0020678Y0014473D01*
X0020668Y0014320D01*
X0020654Y0014168D01*
X0020636Y0014015D01*
X0020614Y0013864D01*
X0020589Y0013713D01*
X0020559Y0013562D01*
X0020525Y0013412D01*
X0020488Y0013264D01*
X0020447Y0013116D01*
X0020402Y0012970D01*
X0020353Y0012824D01*
X0020300Y0012680D01*
X0020244Y0012538D01*
X0020184Y0012397D01*
X0020120Y0012257D01*
X0020053Y0012119D01*
X0019982Y0011983D01*
X0019907Y0011849D01*
X0019830Y0011717D01*
X0019748Y0011587D01*
X0019664Y0011459D01*
X0019576Y0011333D01*
X0019485Y0011210D01*
X0019391Y0011089D01*
X0019293Y0010971D01*
X0019193Y0010855D01*
X0019089Y0010742D01*
X0018983Y0010631D01*
X0018874Y0010523D01*
X0018762Y0010418D01*
X0018648Y0010317D01*
X0018530Y0010218D01*
X0018411Y0010122D01*
X0018289Y0010029D01*
X0018164Y0009940D01*
X0018037Y0009853D01*
X0017908Y0009771D01*
X0017777Y0009691D01*
X0017644Y0009615D01*
X0017509Y0009542D01*
X0017372Y0009473D01*
X0017233Y0009408D01*
X0017093Y0009346D01*
X0016951Y0009288D01*
X0016808Y0009233D01*
X0016663Y0009182D01*
X0016517Y0009135D01*
X0016370Y0009092D01*
X0016222Y0009053D01*
X0016073Y0009017D01*
X0015923Y0008986D01*
X0015772Y0008958D01*
X0015621Y0008934D01*
X0015468Y0008914D01*
X0015316Y0008898D01*
X0015163Y0008886D01*
X0015010Y0008878D01*
X0014857Y0008874D01*
X0014703Y0008874D01*
X0014550Y0008878D01*
X0014397Y0008886D01*
X0014244Y0008898D01*
X0014092Y0008914D01*
X0013939Y0008934D01*
X0013788Y0008958D01*
X0013637Y0008986D01*
X0013487Y0009017D01*
X0013338Y0009053D01*
X0013190Y0009092D01*
X0013043Y0009135D01*
X0012897Y0009182D01*
X0012752Y0009233D01*
X0012609Y0009288D01*
X0012467Y0009346D01*
X0012327Y0009408D01*
X0012188Y0009473D01*
X0012051Y0009542D01*
X0011916Y0009615D01*
X0011783Y0009691D01*
X0011652Y0009771D01*
X0011523Y0009853D01*
X0011396Y0009940D01*
X0011271Y0010029D01*
X0011149Y0010122D01*
X0011030Y0010218D01*
X0010912Y0010317D01*
X0010798Y0010418D01*
X0010686Y0010523D01*
X0010577Y0010631D01*
X0010471Y0010742D01*
X0010367Y0010855D01*
X0010267Y0010971D01*
X0010169Y0011089D01*
X0010075Y0011210D01*
X0009984Y0011333D01*
X0009896Y0011459D01*
X0009812Y0011587D01*
X0009730Y0011717D01*
X0009653Y0011849D01*
X0009578Y0011983D01*
X0009507Y0012119D01*
X0009440Y0012257D01*
X0009376Y0012397D01*
X0009316Y0012538D01*
X0009260Y0012680D01*
X0009207Y0012824D01*
X0009158Y0012970D01*
X0009113Y0013116D01*
X0009072Y0013264D01*
X0009035Y0013412D01*
X0009001Y0013562D01*
X0008971Y0013713D01*
X0008946Y0013864D01*
X0008924Y0014015D01*
X0008906Y0014168D01*
X0008892Y0014320D01*
X0008882Y0014473D01*
X0008876Y0014627D01*
X0008874Y0014780D01*
X0150606Y0014780D02*
X0150608Y0014933D01*
X0150614Y0015087D01*
X0150624Y0015240D01*
X0150638Y0015392D01*
X0150656Y0015545D01*
X0150678Y0015696D01*
X0150703Y0015847D01*
X0150733Y0015998D01*
X0150767Y0016148D01*
X0150804Y0016296D01*
X0150845Y0016444D01*
X0150890Y0016590D01*
X0150939Y0016736D01*
X0150992Y0016880D01*
X0151048Y0017022D01*
X0151108Y0017163D01*
X0151172Y0017303D01*
X0151239Y0017441D01*
X0151310Y0017577D01*
X0151385Y0017711D01*
X0151462Y0017843D01*
X0151544Y0017973D01*
X0151628Y0018101D01*
X0151716Y0018227D01*
X0151807Y0018350D01*
X0151901Y0018471D01*
X0151999Y0018589D01*
X0152099Y0018705D01*
X0152203Y0018818D01*
X0152309Y0018929D01*
X0152418Y0019037D01*
X0152530Y0019142D01*
X0152644Y0019243D01*
X0152762Y0019342D01*
X0152881Y0019438D01*
X0153003Y0019531D01*
X0153128Y0019620D01*
X0153255Y0019707D01*
X0153384Y0019789D01*
X0153515Y0019869D01*
X0153648Y0019945D01*
X0153783Y0020018D01*
X0153920Y0020087D01*
X0154059Y0020152D01*
X0154199Y0020214D01*
X0154341Y0020272D01*
X0154484Y0020327D01*
X0154629Y0020378D01*
X0154775Y0020425D01*
X0154922Y0020468D01*
X0155070Y0020507D01*
X0155219Y0020543D01*
X0155369Y0020574D01*
X0155520Y0020602D01*
X0155671Y0020626D01*
X0155824Y0020646D01*
X0155976Y0020662D01*
X0156129Y0020674D01*
X0156282Y0020682D01*
X0156435Y0020686D01*
X0156589Y0020686D01*
X0156742Y0020682D01*
X0156895Y0020674D01*
X0157048Y0020662D01*
X0157200Y0020646D01*
X0157353Y0020626D01*
X0157504Y0020602D01*
X0157655Y0020574D01*
X0157805Y0020543D01*
X0157954Y0020507D01*
X0158102Y0020468D01*
X0158249Y0020425D01*
X0158395Y0020378D01*
X0158540Y0020327D01*
X0158683Y0020272D01*
X0158825Y0020214D01*
X0158965Y0020152D01*
X0159104Y0020087D01*
X0159241Y0020018D01*
X0159376Y0019945D01*
X0159509Y0019869D01*
X0159640Y0019789D01*
X0159769Y0019707D01*
X0159896Y0019620D01*
X0160021Y0019531D01*
X0160143Y0019438D01*
X0160262Y0019342D01*
X0160380Y0019243D01*
X0160494Y0019142D01*
X0160606Y0019037D01*
X0160715Y0018929D01*
X0160821Y0018818D01*
X0160925Y0018705D01*
X0161025Y0018589D01*
X0161123Y0018471D01*
X0161217Y0018350D01*
X0161308Y0018227D01*
X0161396Y0018101D01*
X0161480Y0017973D01*
X0161562Y0017843D01*
X0161639Y0017711D01*
X0161714Y0017577D01*
X0161785Y0017441D01*
X0161852Y0017303D01*
X0161916Y0017163D01*
X0161976Y0017022D01*
X0162032Y0016880D01*
X0162085Y0016736D01*
X0162134Y0016590D01*
X0162179Y0016444D01*
X0162220Y0016296D01*
X0162257Y0016148D01*
X0162291Y0015998D01*
X0162321Y0015847D01*
X0162346Y0015696D01*
X0162368Y0015545D01*
X0162386Y0015392D01*
X0162400Y0015240D01*
X0162410Y0015087D01*
X0162416Y0014933D01*
X0162418Y0014780D01*
X0162416Y0014627D01*
X0162410Y0014473D01*
X0162400Y0014320D01*
X0162386Y0014168D01*
X0162368Y0014015D01*
X0162346Y0013864D01*
X0162321Y0013713D01*
X0162291Y0013562D01*
X0162257Y0013412D01*
X0162220Y0013264D01*
X0162179Y0013116D01*
X0162134Y0012970D01*
X0162085Y0012824D01*
X0162032Y0012680D01*
X0161976Y0012538D01*
X0161916Y0012397D01*
X0161852Y0012257D01*
X0161785Y0012119D01*
X0161714Y0011983D01*
X0161639Y0011849D01*
X0161562Y0011717D01*
X0161480Y0011587D01*
X0161396Y0011459D01*
X0161308Y0011333D01*
X0161217Y0011210D01*
X0161123Y0011089D01*
X0161025Y0010971D01*
X0160925Y0010855D01*
X0160821Y0010742D01*
X0160715Y0010631D01*
X0160606Y0010523D01*
X0160494Y0010418D01*
X0160380Y0010317D01*
X0160262Y0010218D01*
X0160143Y0010122D01*
X0160021Y0010029D01*
X0159896Y0009940D01*
X0159769Y0009853D01*
X0159640Y0009771D01*
X0159509Y0009691D01*
X0159376Y0009615D01*
X0159241Y0009542D01*
X0159104Y0009473D01*
X0158965Y0009408D01*
X0158825Y0009346D01*
X0158683Y0009288D01*
X0158540Y0009233D01*
X0158395Y0009182D01*
X0158249Y0009135D01*
X0158102Y0009092D01*
X0157954Y0009053D01*
X0157805Y0009017D01*
X0157655Y0008986D01*
X0157504Y0008958D01*
X0157353Y0008934D01*
X0157200Y0008914D01*
X0157048Y0008898D01*
X0156895Y0008886D01*
X0156742Y0008878D01*
X0156589Y0008874D01*
X0156435Y0008874D01*
X0156282Y0008878D01*
X0156129Y0008886D01*
X0155976Y0008898D01*
X0155824Y0008914D01*
X0155671Y0008934D01*
X0155520Y0008958D01*
X0155369Y0008986D01*
X0155219Y0009017D01*
X0155070Y0009053D01*
X0154922Y0009092D01*
X0154775Y0009135D01*
X0154629Y0009182D01*
X0154484Y0009233D01*
X0154341Y0009288D01*
X0154199Y0009346D01*
X0154059Y0009408D01*
X0153920Y0009473D01*
X0153783Y0009542D01*
X0153648Y0009615D01*
X0153515Y0009691D01*
X0153384Y0009771D01*
X0153255Y0009853D01*
X0153128Y0009940D01*
X0153003Y0010029D01*
X0152881Y0010122D01*
X0152762Y0010218D01*
X0152644Y0010317D01*
X0152530Y0010418D01*
X0152418Y0010523D01*
X0152309Y0010631D01*
X0152203Y0010742D01*
X0152099Y0010855D01*
X0151999Y0010971D01*
X0151901Y0011089D01*
X0151807Y0011210D01*
X0151716Y0011333D01*
X0151628Y0011459D01*
X0151544Y0011587D01*
X0151462Y0011717D01*
X0151385Y0011849D01*
X0151310Y0011983D01*
X0151239Y0012119D01*
X0151172Y0012257D01*
X0151108Y0012397D01*
X0151048Y0012538D01*
X0150992Y0012680D01*
X0150939Y0012824D01*
X0150890Y0012970D01*
X0150845Y0013116D01*
X0150804Y0013264D01*
X0150767Y0013412D01*
X0150733Y0013562D01*
X0150703Y0013713D01*
X0150678Y0013864D01*
X0150656Y0014015D01*
X0150638Y0014168D01*
X0150624Y0014320D01*
X0150614Y0014473D01*
X0150608Y0014627D01*
X0150606Y0014780D01*
X0150606Y0219504D02*
X0150608Y0219657D01*
X0150614Y0219811D01*
X0150624Y0219964D01*
X0150638Y0220116D01*
X0150656Y0220269D01*
X0150678Y0220420D01*
X0150703Y0220571D01*
X0150733Y0220722D01*
X0150767Y0220872D01*
X0150804Y0221020D01*
X0150845Y0221168D01*
X0150890Y0221314D01*
X0150939Y0221460D01*
X0150992Y0221604D01*
X0151048Y0221746D01*
X0151108Y0221887D01*
X0151172Y0222027D01*
X0151239Y0222165D01*
X0151310Y0222301D01*
X0151385Y0222435D01*
X0151462Y0222567D01*
X0151544Y0222697D01*
X0151628Y0222825D01*
X0151716Y0222951D01*
X0151807Y0223074D01*
X0151901Y0223195D01*
X0151999Y0223313D01*
X0152099Y0223429D01*
X0152203Y0223542D01*
X0152309Y0223653D01*
X0152418Y0223761D01*
X0152530Y0223866D01*
X0152644Y0223967D01*
X0152762Y0224066D01*
X0152881Y0224162D01*
X0153003Y0224255D01*
X0153128Y0224344D01*
X0153255Y0224431D01*
X0153384Y0224513D01*
X0153515Y0224593D01*
X0153648Y0224669D01*
X0153783Y0224742D01*
X0153920Y0224811D01*
X0154059Y0224876D01*
X0154199Y0224938D01*
X0154341Y0224996D01*
X0154484Y0225051D01*
X0154629Y0225102D01*
X0154775Y0225149D01*
X0154922Y0225192D01*
X0155070Y0225231D01*
X0155219Y0225267D01*
X0155369Y0225298D01*
X0155520Y0225326D01*
X0155671Y0225350D01*
X0155824Y0225370D01*
X0155976Y0225386D01*
X0156129Y0225398D01*
X0156282Y0225406D01*
X0156435Y0225410D01*
X0156589Y0225410D01*
X0156742Y0225406D01*
X0156895Y0225398D01*
X0157048Y0225386D01*
X0157200Y0225370D01*
X0157353Y0225350D01*
X0157504Y0225326D01*
X0157655Y0225298D01*
X0157805Y0225267D01*
X0157954Y0225231D01*
X0158102Y0225192D01*
X0158249Y0225149D01*
X0158395Y0225102D01*
X0158540Y0225051D01*
X0158683Y0224996D01*
X0158825Y0224938D01*
X0158965Y0224876D01*
X0159104Y0224811D01*
X0159241Y0224742D01*
X0159376Y0224669D01*
X0159509Y0224593D01*
X0159640Y0224513D01*
X0159769Y0224431D01*
X0159896Y0224344D01*
X0160021Y0224255D01*
X0160143Y0224162D01*
X0160262Y0224066D01*
X0160380Y0223967D01*
X0160494Y0223866D01*
X0160606Y0223761D01*
X0160715Y0223653D01*
X0160821Y0223542D01*
X0160925Y0223429D01*
X0161025Y0223313D01*
X0161123Y0223195D01*
X0161217Y0223074D01*
X0161308Y0222951D01*
X0161396Y0222825D01*
X0161480Y0222697D01*
X0161562Y0222567D01*
X0161639Y0222435D01*
X0161714Y0222301D01*
X0161785Y0222165D01*
X0161852Y0222027D01*
X0161916Y0221887D01*
X0161976Y0221746D01*
X0162032Y0221604D01*
X0162085Y0221460D01*
X0162134Y0221314D01*
X0162179Y0221168D01*
X0162220Y0221020D01*
X0162257Y0220872D01*
X0162291Y0220722D01*
X0162321Y0220571D01*
X0162346Y0220420D01*
X0162368Y0220269D01*
X0162386Y0220116D01*
X0162400Y0219964D01*
X0162410Y0219811D01*
X0162416Y0219657D01*
X0162418Y0219504D01*
X0162416Y0219351D01*
X0162410Y0219197D01*
X0162400Y0219044D01*
X0162386Y0218892D01*
X0162368Y0218739D01*
X0162346Y0218588D01*
X0162321Y0218437D01*
X0162291Y0218286D01*
X0162257Y0218136D01*
X0162220Y0217988D01*
X0162179Y0217840D01*
X0162134Y0217694D01*
X0162085Y0217548D01*
X0162032Y0217404D01*
X0161976Y0217262D01*
X0161916Y0217121D01*
X0161852Y0216981D01*
X0161785Y0216843D01*
X0161714Y0216707D01*
X0161639Y0216573D01*
X0161562Y0216441D01*
X0161480Y0216311D01*
X0161396Y0216183D01*
X0161308Y0216057D01*
X0161217Y0215934D01*
X0161123Y0215813D01*
X0161025Y0215695D01*
X0160925Y0215579D01*
X0160821Y0215466D01*
X0160715Y0215355D01*
X0160606Y0215247D01*
X0160494Y0215142D01*
X0160380Y0215041D01*
X0160262Y0214942D01*
X0160143Y0214846D01*
X0160021Y0214753D01*
X0159896Y0214664D01*
X0159769Y0214577D01*
X0159640Y0214495D01*
X0159509Y0214415D01*
X0159376Y0214339D01*
X0159241Y0214266D01*
X0159104Y0214197D01*
X0158965Y0214132D01*
X0158825Y0214070D01*
X0158683Y0214012D01*
X0158540Y0213957D01*
X0158395Y0213906D01*
X0158249Y0213859D01*
X0158102Y0213816D01*
X0157954Y0213777D01*
X0157805Y0213741D01*
X0157655Y0213710D01*
X0157504Y0213682D01*
X0157353Y0213658D01*
X0157200Y0213638D01*
X0157048Y0213622D01*
X0156895Y0213610D01*
X0156742Y0213602D01*
X0156589Y0213598D01*
X0156435Y0213598D01*
X0156282Y0213602D01*
X0156129Y0213610D01*
X0155976Y0213622D01*
X0155824Y0213638D01*
X0155671Y0213658D01*
X0155520Y0213682D01*
X0155369Y0213710D01*
X0155219Y0213741D01*
X0155070Y0213777D01*
X0154922Y0213816D01*
X0154775Y0213859D01*
X0154629Y0213906D01*
X0154484Y0213957D01*
X0154341Y0214012D01*
X0154199Y0214070D01*
X0154059Y0214132D01*
X0153920Y0214197D01*
X0153783Y0214266D01*
X0153648Y0214339D01*
X0153515Y0214415D01*
X0153384Y0214495D01*
X0153255Y0214577D01*
X0153128Y0214664D01*
X0153003Y0214753D01*
X0152881Y0214846D01*
X0152762Y0214942D01*
X0152644Y0215041D01*
X0152530Y0215142D01*
X0152418Y0215247D01*
X0152309Y0215355D01*
X0152203Y0215466D01*
X0152099Y0215579D01*
X0151999Y0215695D01*
X0151901Y0215813D01*
X0151807Y0215934D01*
X0151716Y0216057D01*
X0151628Y0216183D01*
X0151544Y0216311D01*
X0151462Y0216441D01*
X0151385Y0216573D01*
X0151310Y0216707D01*
X0151239Y0216843D01*
X0151172Y0216981D01*
X0151108Y0217121D01*
X0151048Y0217262D01*
X0150992Y0217404D01*
X0150939Y0217548D01*
X0150890Y0217694D01*
X0150845Y0217840D01*
X0150804Y0217988D01*
X0150767Y0218136D01*
X0150733Y0218286D01*
X0150703Y0218437D01*
X0150678Y0218588D01*
X0150656Y0218739D01*
X0150638Y0218892D01*
X0150624Y0219044D01*
X0150614Y0219197D01*
X0150608Y0219351D01*
X0150606Y0219504D01*
X0008874Y0219504D02*
X0008876Y0219657D01*
X0008882Y0219811D01*
X0008892Y0219964D01*
X0008906Y0220116D01*
X0008924Y0220269D01*
X0008946Y0220420D01*
X0008971Y0220571D01*
X0009001Y0220722D01*
X0009035Y0220872D01*
X0009072Y0221020D01*
X0009113Y0221168D01*
X0009158Y0221314D01*
X0009207Y0221460D01*
X0009260Y0221604D01*
X0009316Y0221746D01*
X0009376Y0221887D01*
X0009440Y0222027D01*
X0009507Y0222165D01*
X0009578Y0222301D01*
X0009653Y0222435D01*
X0009730Y0222567D01*
X0009812Y0222697D01*
X0009896Y0222825D01*
X0009984Y0222951D01*
X0010075Y0223074D01*
X0010169Y0223195D01*
X0010267Y0223313D01*
X0010367Y0223429D01*
X0010471Y0223542D01*
X0010577Y0223653D01*
X0010686Y0223761D01*
X0010798Y0223866D01*
X0010912Y0223967D01*
X0011030Y0224066D01*
X0011149Y0224162D01*
X0011271Y0224255D01*
X0011396Y0224344D01*
X0011523Y0224431D01*
X0011652Y0224513D01*
X0011783Y0224593D01*
X0011916Y0224669D01*
X0012051Y0224742D01*
X0012188Y0224811D01*
X0012327Y0224876D01*
X0012467Y0224938D01*
X0012609Y0224996D01*
X0012752Y0225051D01*
X0012897Y0225102D01*
X0013043Y0225149D01*
X0013190Y0225192D01*
X0013338Y0225231D01*
X0013487Y0225267D01*
X0013637Y0225298D01*
X0013788Y0225326D01*
X0013939Y0225350D01*
X0014092Y0225370D01*
X0014244Y0225386D01*
X0014397Y0225398D01*
X0014550Y0225406D01*
X0014703Y0225410D01*
X0014857Y0225410D01*
X0015010Y0225406D01*
X0015163Y0225398D01*
X0015316Y0225386D01*
X0015468Y0225370D01*
X0015621Y0225350D01*
X0015772Y0225326D01*
X0015923Y0225298D01*
X0016073Y0225267D01*
X0016222Y0225231D01*
X0016370Y0225192D01*
X0016517Y0225149D01*
X0016663Y0225102D01*
X0016808Y0225051D01*
X0016951Y0224996D01*
X0017093Y0224938D01*
X0017233Y0224876D01*
X0017372Y0224811D01*
X0017509Y0224742D01*
X0017644Y0224669D01*
X0017777Y0224593D01*
X0017908Y0224513D01*
X0018037Y0224431D01*
X0018164Y0224344D01*
X0018289Y0224255D01*
X0018411Y0224162D01*
X0018530Y0224066D01*
X0018648Y0223967D01*
X0018762Y0223866D01*
X0018874Y0223761D01*
X0018983Y0223653D01*
X0019089Y0223542D01*
X0019193Y0223429D01*
X0019293Y0223313D01*
X0019391Y0223195D01*
X0019485Y0223074D01*
X0019576Y0222951D01*
X0019664Y0222825D01*
X0019748Y0222697D01*
X0019830Y0222567D01*
X0019907Y0222435D01*
X0019982Y0222301D01*
X0020053Y0222165D01*
X0020120Y0222027D01*
X0020184Y0221887D01*
X0020244Y0221746D01*
X0020300Y0221604D01*
X0020353Y0221460D01*
X0020402Y0221314D01*
X0020447Y0221168D01*
X0020488Y0221020D01*
X0020525Y0220872D01*
X0020559Y0220722D01*
X0020589Y0220571D01*
X0020614Y0220420D01*
X0020636Y0220269D01*
X0020654Y0220116D01*
X0020668Y0219964D01*
X0020678Y0219811D01*
X0020684Y0219657D01*
X0020686Y0219504D01*
X0020684Y0219351D01*
X0020678Y0219197D01*
X0020668Y0219044D01*
X0020654Y0218892D01*
X0020636Y0218739D01*
X0020614Y0218588D01*
X0020589Y0218437D01*
X0020559Y0218286D01*
X0020525Y0218136D01*
X0020488Y0217988D01*
X0020447Y0217840D01*
X0020402Y0217694D01*
X0020353Y0217548D01*
X0020300Y0217404D01*
X0020244Y0217262D01*
X0020184Y0217121D01*
X0020120Y0216981D01*
X0020053Y0216843D01*
X0019982Y0216707D01*
X0019907Y0216573D01*
X0019830Y0216441D01*
X0019748Y0216311D01*
X0019664Y0216183D01*
X0019576Y0216057D01*
X0019485Y0215934D01*
X0019391Y0215813D01*
X0019293Y0215695D01*
X0019193Y0215579D01*
X0019089Y0215466D01*
X0018983Y0215355D01*
X0018874Y0215247D01*
X0018762Y0215142D01*
X0018648Y0215041D01*
X0018530Y0214942D01*
X0018411Y0214846D01*
X0018289Y0214753D01*
X0018164Y0214664D01*
X0018037Y0214577D01*
X0017908Y0214495D01*
X0017777Y0214415D01*
X0017644Y0214339D01*
X0017509Y0214266D01*
X0017372Y0214197D01*
X0017233Y0214132D01*
X0017093Y0214070D01*
X0016951Y0214012D01*
X0016808Y0213957D01*
X0016663Y0213906D01*
X0016517Y0213859D01*
X0016370Y0213816D01*
X0016222Y0213777D01*
X0016073Y0213741D01*
X0015923Y0213710D01*
X0015772Y0213682D01*
X0015621Y0213658D01*
X0015468Y0213638D01*
X0015316Y0213622D01*
X0015163Y0213610D01*
X0015010Y0213602D01*
X0014857Y0213598D01*
X0014703Y0213598D01*
X0014550Y0213602D01*
X0014397Y0213610D01*
X0014244Y0213622D01*
X0014092Y0213638D01*
X0013939Y0213658D01*
X0013788Y0213682D01*
X0013637Y0213710D01*
X0013487Y0213741D01*
X0013338Y0213777D01*
X0013190Y0213816D01*
X0013043Y0213859D01*
X0012897Y0213906D01*
X0012752Y0213957D01*
X0012609Y0214012D01*
X0012467Y0214070D01*
X0012327Y0214132D01*
X0012188Y0214197D01*
X0012051Y0214266D01*
X0011916Y0214339D01*
X0011783Y0214415D01*
X0011652Y0214495D01*
X0011523Y0214577D01*
X0011396Y0214664D01*
X0011271Y0214753D01*
X0011149Y0214846D01*
X0011030Y0214942D01*
X0010912Y0215041D01*
X0010798Y0215142D01*
X0010686Y0215247D01*
X0010577Y0215355D01*
X0010471Y0215466D01*
X0010367Y0215579D01*
X0010267Y0215695D01*
X0010169Y0215813D01*
X0010075Y0215934D01*
X0009984Y0216057D01*
X0009896Y0216183D01*
X0009812Y0216311D01*
X0009730Y0216441D01*
X0009653Y0216573D01*
X0009578Y0216707D01*
X0009507Y0216843D01*
X0009440Y0216981D01*
X0009376Y0217121D01*
X0009316Y0217262D01*
X0009260Y0217404D01*
X0009207Y0217548D01*
X0009158Y0217694D01*
X0009113Y0217840D01*
X0009072Y0217988D01*
X0009035Y0218136D01*
X0009001Y0218286D01*
X0008971Y0218437D01*
X0008946Y0218588D01*
X0008924Y0218739D01*
X0008906Y0218892D01*
X0008892Y0219044D01*
X0008882Y0219197D01*
X0008876Y0219351D01*
X0008874Y0219504D01*
D11*
X0036433Y0195882D03*
X0075803Y0195882D03*
X0130921Y0148638D03*
X0130921Y0109268D03*
X0130921Y0069898D03*
X0130921Y0030528D03*
X0075803Y0030528D03*
X0036433Y0030528D03*
D12*
X0056118Y0030528D03*
X0095488Y0030528D03*
X0130921Y0050213D03*
X0130921Y0089583D03*
X0130921Y0128953D03*
X0130921Y0168323D03*
X0095488Y0195882D03*
X0056118Y0195882D03*
D13*
X0055823Y0195736D02*
X0042117Y0195736D01*
X0042117Y0193769D02*
X0050512Y0193769D01*
X0050572Y0193585D02*
X0051000Y0192745D01*
X0051554Y0191983D01*
X0052220Y0191317D01*
X0052982Y0190764D01*
X0053821Y0190336D01*
X0054717Y0190045D01*
X0055647Y0189898D01*
X0055823Y0189898D01*
X0055823Y0195587D01*
X0050134Y0195587D01*
X0050134Y0195411D01*
X0050281Y0194481D01*
X0050572Y0193585D01*
X0051735Y0191802D02*
X0042117Y0191802D01*
X0042117Y0191184D02*
X0042117Y0200580D01*
X0041131Y0201566D01*
X0031735Y0201566D01*
X0030749Y0200580D01*
X0030749Y0191184D01*
X0031735Y0190198D01*
X0032780Y0190198D01*
X0032780Y0036212D01*
X0031735Y0036212D01*
X0030749Y0035225D01*
X0030749Y0025830D01*
X0031735Y0024843D01*
X0041131Y0024843D01*
X0042117Y0025830D01*
X0042117Y0035225D01*
X0041131Y0036212D01*
X0040086Y0036212D01*
X0040086Y0057387D01*
X0097330Y0057387D01*
X0097517Y0057199D01*
X0098755Y0056687D01*
X0100095Y0056687D01*
X0101333Y0057199D01*
X0102281Y0058147D01*
X0102794Y0059385D01*
X0102794Y0060725D01*
X0102281Y0061963D01*
X0101333Y0062911D01*
X0100095Y0063424D01*
X0098755Y0063424D01*
X0097517Y0062911D01*
X0097330Y0062724D01*
X0040086Y0062724D01*
X0040086Y0096757D01*
X0097330Y0096757D01*
X0097517Y0096570D01*
X0098755Y0096057D01*
X0100095Y0096057D01*
X0101333Y0096570D01*
X0102281Y0097517D01*
X0102794Y0098755D01*
X0102794Y0100095D01*
X0102546Y0100694D01*
X0137111Y0100694D01*
X0137111Y0077487D01*
X0129412Y0077487D01*
X0126622Y0076332D01*
X0124487Y0074197D01*
X0123331Y0071407D01*
X0123331Y0068388D01*
X0124487Y0065598D01*
X0126622Y0063463D01*
X0129412Y0062308D01*
X0137111Y0062308D01*
X0137111Y0057802D01*
X0129412Y0057802D01*
X0126622Y0056647D01*
X0124487Y0054512D01*
X0123331Y0051722D01*
X0123331Y0048703D01*
X0124487Y0045913D01*
X0126622Y0043778D01*
X0129412Y0042623D01*
X0146210Y0042623D01*
X0149000Y0043778D01*
X0151135Y0045913D01*
X0152291Y0048703D01*
X0152291Y0150147D01*
X0151135Y0152937D01*
X0149000Y0155072D01*
X0147369Y0155748D01*
X0147369Y0180665D01*
X0146963Y0181645D01*
X0146212Y0182396D01*
X0145232Y0182802D01*
X0064119Y0182802D01*
X0063932Y0182990D01*
X0062694Y0183502D01*
X0061354Y0183502D01*
X0060116Y0182990D01*
X0059168Y0182042D01*
X0058655Y0180804D01*
X0058655Y0179464D01*
X0059168Y0178226D01*
X0060116Y0177278D01*
X0061354Y0176765D01*
X0062694Y0176765D01*
X0063932Y0177278D01*
X0064119Y0177465D01*
X0142032Y0177465D01*
X0142032Y0156228D01*
X0129412Y0156228D01*
X0126622Y0155072D01*
X0124487Y0152937D01*
X0123331Y0150147D01*
X0123331Y0147128D01*
X0124047Y0145401D01*
X0065380Y0145401D01*
X0064879Y0146609D01*
X0063932Y0147556D01*
X0062694Y0148069D01*
X0061354Y0148069D01*
X0060116Y0147556D01*
X0059168Y0146609D01*
X0058655Y0145371D01*
X0058655Y0144031D01*
X0059168Y0142793D01*
X0060116Y0141845D01*
X0061036Y0141464D01*
X0040086Y0141464D01*
X0040086Y0190198D01*
X0041131Y0190198D01*
X0042117Y0191184D01*
X0040086Y0189835D02*
X0166639Y0189835D01*
X0166639Y0191802D02*
X0099447Y0191802D01*
X0098708Y0191063D02*
X0100307Y0192662D01*
X0101172Y0194751D01*
X0101172Y0197013D01*
X0100307Y0199102D01*
X0098708Y0200701D01*
X0096619Y0201566D01*
X0094358Y0201566D01*
X0092268Y0200701D01*
X0090669Y0199102D01*
X0089804Y0197013D01*
X0089804Y0194751D01*
X0090669Y0192662D01*
X0092268Y0191063D01*
X0094358Y0190198D01*
X0096619Y0190198D01*
X0098708Y0191063D01*
X0100766Y0193769D02*
X0166639Y0193769D01*
X0166639Y0195736D02*
X0101172Y0195736D01*
X0100886Y0197703D02*
X0166639Y0197703D01*
X0166639Y0199670D02*
X0099739Y0199670D01*
X0091238Y0199670D02*
X0081487Y0199670D01*
X0081487Y0200580D02*
X0080501Y0201566D01*
X0071105Y0201566D01*
X0070119Y0200580D01*
X0070119Y0191184D01*
X0071105Y0190198D01*
X0080501Y0190198D01*
X0081487Y0191184D01*
X0081487Y0200580D01*
X0081487Y0197703D02*
X0090090Y0197703D01*
X0089804Y0195736D02*
X0081487Y0195736D01*
X0081487Y0193769D02*
X0090211Y0193769D01*
X0091529Y0191802D02*
X0081487Y0191802D01*
X0070119Y0191802D02*
X0060501Y0191802D01*
X0060683Y0191983D02*
X0061236Y0192745D01*
X0061664Y0193585D01*
X0061955Y0194481D01*
X0062102Y0195411D01*
X0062102Y0195587D01*
X0056413Y0195587D01*
X0056413Y0196177D01*
X0055823Y0196177D01*
X0055823Y0195587D01*
X0056413Y0195587D01*
X0056413Y0189898D01*
X0056589Y0189898D01*
X0057519Y0190045D01*
X0058415Y0190336D01*
X0059255Y0190764D01*
X0060017Y0191317D01*
X0060683Y0191983D01*
X0061724Y0193769D02*
X0070119Y0193769D01*
X0070119Y0195736D02*
X0056413Y0195736D01*
X0056413Y0196177D02*
X0062102Y0196177D01*
X0062102Y0196353D01*
X0061955Y0197283D01*
X0061664Y0198179D01*
X0061236Y0199018D01*
X0060683Y0199780D01*
X0060017Y0200446D01*
X0059255Y0201000D01*
X0058415Y0201428D01*
X0057519Y0201719D01*
X0056589Y0201866D01*
X0056413Y0201866D01*
X0056413Y0196177D01*
X0055823Y0196177D02*
X0055823Y0201866D01*
X0055647Y0201866D01*
X0054717Y0201719D01*
X0053821Y0201428D01*
X0052982Y0201000D01*
X0052220Y0200446D01*
X0051554Y0199780D01*
X0051000Y0199018D01*
X0050572Y0198179D01*
X0050281Y0197283D01*
X0050134Y0196353D01*
X0050134Y0196177D01*
X0055823Y0196177D01*
X0055823Y0197703D02*
X0056413Y0197703D01*
X0056413Y0199670D02*
X0055823Y0199670D01*
X0055823Y0201637D02*
X0056413Y0201637D01*
X0057771Y0201637D02*
X0166639Y0201637D01*
X0166639Y0203604D02*
X0004653Y0203604D01*
X0004653Y0201637D02*
X0054465Y0201637D01*
X0051473Y0199670D02*
X0042117Y0199670D01*
X0042117Y0197703D02*
X0050418Y0197703D01*
X0055823Y0193769D02*
X0056413Y0193769D01*
X0056413Y0191802D02*
X0055823Y0191802D01*
X0061819Y0197703D02*
X0070119Y0197703D01*
X0070119Y0199670D02*
X0060763Y0199670D01*
X0059137Y0181967D02*
X0040086Y0181967D01*
X0040086Y0183934D02*
X0166639Y0183934D01*
X0166639Y0185901D02*
X0040086Y0185901D01*
X0040086Y0187868D02*
X0166639Y0187868D01*
X0166639Y0181967D02*
X0146642Y0181967D01*
X0147369Y0180000D02*
X0166639Y0180000D01*
X0166639Y0178033D02*
X0147369Y0178033D01*
X0147369Y0176066D02*
X0166639Y0176066D01*
X0166639Y0174099D02*
X0147369Y0174099D01*
X0147369Y0172132D02*
X0166639Y0172132D01*
X0166639Y0170165D02*
X0147369Y0170165D01*
X0147369Y0168198D02*
X0166639Y0168198D01*
X0166639Y0166231D02*
X0147369Y0166231D01*
X0147369Y0164264D02*
X0166639Y0164264D01*
X0166639Y0162297D02*
X0147369Y0162297D01*
X0147369Y0160330D02*
X0166639Y0160330D01*
X0166639Y0158363D02*
X0147369Y0158363D01*
X0147369Y0156396D02*
X0166639Y0156396D01*
X0166639Y0154429D02*
X0149643Y0154429D01*
X0151332Y0152462D02*
X0166639Y0152462D01*
X0166639Y0150495D02*
X0152147Y0150495D01*
X0152291Y0148528D02*
X0166639Y0148528D01*
X0166639Y0146561D02*
X0152291Y0146561D01*
X0152291Y0144594D02*
X0166639Y0144594D01*
X0166639Y0142627D02*
X0152291Y0142627D01*
X0152291Y0140660D02*
X0166639Y0140660D01*
X0166639Y0138693D02*
X0152291Y0138693D01*
X0152291Y0136726D02*
X0166639Y0136726D01*
X0166639Y0134759D02*
X0152291Y0134759D01*
X0152291Y0132792D02*
X0166639Y0132792D01*
X0166639Y0130824D02*
X0152291Y0130824D01*
X0152291Y0128857D02*
X0166639Y0128857D01*
X0166639Y0126890D02*
X0152291Y0126890D01*
X0152291Y0124923D02*
X0166639Y0124923D01*
X0166639Y0122956D02*
X0152291Y0122956D01*
X0152291Y0120989D02*
X0166639Y0120989D01*
X0166639Y0119022D02*
X0152291Y0119022D01*
X0152291Y0117055D02*
X0166639Y0117055D01*
X0166639Y0115088D02*
X0152291Y0115088D01*
X0152291Y0113121D02*
X0166639Y0113121D01*
X0166639Y0111154D02*
X0152291Y0111154D01*
X0152291Y0109187D02*
X0166639Y0109187D01*
X0166639Y0107220D02*
X0152291Y0107220D01*
X0152291Y0105253D02*
X0166639Y0105253D01*
X0166639Y0103286D02*
X0152291Y0103286D01*
X0152291Y0101319D02*
X0166639Y0101319D01*
X0166639Y0099352D02*
X0152291Y0099352D01*
X0152291Y0097385D02*
X0166639Y0097385D01*
X0166639Y0095418D02*
X0152291Y0095418D01*
X0152291Y0093451D02*
X0166639Y0093451D01*
X0166639Y0091484D02*
X0152291Y0091484D01*
X0152291Y0089517D02*
X0166639Y0089517D01*
X0166639Y0087550D02*
X0152291Y0087550D01*
X0152291Y0085583D02*
X0166639Y0085583D01*
X0166639Y0083616D02*
X0152291Y0083616D01*
X0152291Y0081649D02*
X0166639Y0081649D01*
X0166639Y0079682D02*
X0152291Y0079682D01*
X0152291Y0077715D02*
X0166639Y0077715D01*
X0166639Y0075748D02*
X0152291Y0075748D01*
X0152291Y0073781D02*
X0166639Y0073781D01*
X0166639Y0071814D02*
X0152291Y0071814D01*
X0152291Y0069847D02*
X0166639Y0069847D01*
X0166639Y0067880D02*
X0152291Y0067880D01*
X0152291Y0065913D02*
X0166639Y0065913D01*
X0166639Y0063946D02*
X0152291Y0063946D01*
X0152291Y0061979D02*
X0166639Y0061979D01*
X0166639Y0060012D02*
X0152291Y0060012D01*
X0152291Y0058045D02*
X0166639Y0058045D01*
X0166639Y0056078D02*
X0152291Y0056078D01*
X0152291Y0054111D02*
X0166639Y0054111D01*
X0166639Y0052144D02*
X0152291Y0052144D01*
X0152291Y0050177D02*
X0166639Y0050177D01*
X0166639Y0048210D02*
X0152086Y0048210D01*
X0151272Y0046243D02*
X0166639Y0046243D01*
X0166639Y0044276D02*
X0149498Y0044276D01*
X0137111Y0058045D02*
X0102179Y0058045D01*
X0102794Y0060012D02*
X0137111Y0060012D01*
X0137111Y0061979D02*
X0102265Y0061979D01*
X0099425Y0060055D02*
X0036433Y0060055D01*
X0032780Y0060012D02*
X0004653Y0060012D01*
X0004653Y0061979D02*
X0032780Y0061979D01*
X0032780Y0063946D02*
X0004653Y0063946D01*
X0004653Y0065913D02*
X0032780Y0065913D01*
X0032780Y0067880D02*
X0004653Y0067880D01*
X0004653Y0069847D02*
X0032780Y0069847D01*
X0032780Y0071814D02*
X0004653Y0071814D01*
X0004653Y0073781D02*
X0032780Y0073781D01*
X0032780Y0075748D02*
X0004653Y0075748D01*
X0004653Y0077715D02*
X0032780Y0077715D01*
X0032780Y0079682D02*
X0004653Y0079682D01*
X0004653Y0081649D02*
X0032780Y0081649D01*
X0032780Y0083616D02*
X0004653Y0083616D01*
X0004653Y0085583D02*
X0032780Y0085583D01*
X0032780Y0087550D02*
X0004653Y0087550D01*
X0004653Y0089517D02*
X0032780Y0089517D01*
X0032780Y0091484D02*
X0004653Y0091484D01*
X0004653Y0093451D02*
X0032780Y0093451D01*
X0032780Y0095418D02*
X0004653Y0095418D01*
X0004653Y0097385D02*
X0032780Y0097385D01*
X0032780Y0099352D02*
X0004653Y0099352D01*
X0004653Y0101319D02*
X0032780Y0101319D01*
X0032780Y0103286D02*
X0004653Y0103286D01*
X0004653Y0105253D02*
X0032780Y0105253D01*
X0032780Y0107220D02*
X0004653Y0107220D01*
X0004653Y0109187D02*
X0032780Y0109187D01*
X0032780Y0111154D02*
X0004653Y0111154D01*
X0004653Y0113121D02*
X0032780Y0113121D01*
X0032780Y0115088D02*
X0004653Y0115088D01*
X0004653Y0117055D02*
X0032780Y0117055D01*
X0032780Y0119022D02*
X0004653Y0119022D01*
X0004653Y0120989D02*
X0032780Y0120989D01*
X0032780Y0122956D02*
X0004653Y0122956D01*
X0004653Y0124923D02*
X0032780Y0124923D01*
X0032780Y0126890D02*
X0004653Y0126890D01*
X0004653Y0128857D02*
X0032780Y0128857D01*
X0032780Y0130824D02*
X0004653Y0130824D01*
X0004653Y0132792D02*
X0032780Y0132792D01*
X0032780Y0134759D02*
X0004653Y0134759D01*
X0004653Y0136726D02*
X0032780Y0136726D01*
X0032780Y0138693D02*
X0004653Y0138693D01*
X0004653Y0140660D02*
X0032780Y0140660D01*
X0032780Y0142627D02*
X0004653Y0142627D01*
X0004653Y0144594D02*
X0032780Y0144594D01*
X0032780Y0146561D02*
X0004653Y0146561D01*
X0004653Y0148528D02*
X0032780Y0148528D01*
X0032780Y0150495D02*
X0004653Y0150495D01*
X0004653Y0152462D02*
X0032780Y0152462D01*
X0032780Y0154429D02*
X0004653Y0154429D01*
X0004653Y0156396D02*
X0032780Y0156396D01*
X0032780Y0158363D02*
X0004653Y0158363D01*
X0004653Y0160330D02*
X0032780Y0160330D01*
X0032780Y0162297D02*
X0004653Y0162297D01*
X0004653Y0164264D02*
X0032780Y0164264D01*
X0032780Y0166231D02*
X0004653Y0166231D01*
X0004653Y0168198D02*
X0032780Y0168198D01*
X0032780Y0170165D02*
X0004653Y0170165D01*
X0004653Y0172132D02*
X0032780Y0172132D01*
X0032780Y0174099D02*
X0004653Y0174099D01*
X0004653Y0176066D02*
X0032780Y0176066D01*
X0032780Y0178033D02*
X0004653Y0178033D01*
X0004653Y0180000D02*
X0032780Y0180000D01*
X0032780Y0181967D02*
X0004653Y0181967D01*
X0004653Y0183934D02*
X0032780Y0183934D01*
X0032780Y0185901D02*
X0004653Y0185901D01*
X0004653Y0187868D02*
X0032780Y0187868D01*
X0032780Y0189835D02*
X0004653Y0189835D01*
X0004653Y0191802D02*
X0030749Y0191802D01*
X0030749Y0193769D02*
X0004653Y0193769D01*
X0004653Y0195736D02*
X0030749Y0195736D01*
X0030749Y0197703D02*
X0004653Y0197703D01*
X0004653Y0199670D02*
X0030749Y0199670D01*
X0019079Y0213070D02*
X0021214Y0215205D01*
X0022369Y0217994D01*
X0022369Y0221014D01*
X0021214Y0223803D01*
X0019079Y0225938D01*
X0016289Y0227094D01*
X0013270Y0227094D01*
X0010480Y0225938D01*
X0008345Y0223803D01*
X0007190Y0221014D01*
X0007190Y0217994D01*
X0008345Y0215205D01*
X0010480Y0213070D01*
X0013270Y0211914D01*
X0016289Y0211914D01*
X0019079Y0213070D01*
X0019448Y0213439D02*
X0151843Y0213439D01*
X0152213Y0213070D02*
X0155002Y0211914D01*
X0158022Y0211914D01*
X0160811Y0213070D01*
X0162946Y0215205D01*
X0164102Y0217994D01*
X0164102Y0221014D01*
X0162946Y0223803D01*
X0160811Y0225938D01*
X0158022Y0227094D01*
X0155002Y0227094D01*
X0152213Y0225938D01*
X0150078Y0223803D01*
X0148922Y0221014D01*
X0148922Y0217994D01*
X0150078Y0215205D01*
X0152213Y0213070D01*
X0149994Y0215406D02*
X0021297Y0215406D01*
X0022112Y0217373D02*
X0149179Y0217373D01*
X0148922Y0219340D02*
X0022369Y0219340D01*
X0022248Y0221307D02*
X0149044Y0221307D01*
X0149858Y0223274D02*
X0021433Y0223274D01*
X0019776Y0225241D02*
X0151516Y0225241D01*
X0161508Y0225241D02*
X0166639Y0225241D01*
X0166639Y0223274D02*
X0163165Y0223274D01*
X0163980Y0221307D02*
X0166639Y0221307D01*
X0166639Y0219340D02*
X0164102Y0219340D01*
X0163844Y0217373D02*
X0166639Y0217373D01*
X0166639Y0215406D02*
X0163030Y0215406D01*
X0161181Y0213439D02*
X0166639Y0213439D01*
X0166639Y0211472D02*
X0004653Y0211472D01*
X0004653Y0209505D02*
X0166639Y0209505D01*
X0166639Y0207538D02*
X0004653Y0207538D01*
X0004653Y0205571D02*
X0166639Y0205571D01*
X0166639Y0227208D02*
X0004653Y0227208D01*
X0004653Y0225241D02*
X0009783Y0225241D01*
X0008126Y0223274D02*
X0004653Y0223274D01*
X0004653Y0221307D02*
X0007311Y0221307D01*
X0007190Y0219340D02*
X0004653Y0219340D01*
X0004653Y0217373D02*
X0007447Y0217373D01*
X0008262Y0215406D02*
X0004653Y0215406D01*
X0004653Y0213439D02*
X0010111Y0213439D01*
X0004653Y0229175D02*
X0166639Y0229175D01*
X0166639Y0229631D02*
X0166639Y0004653D01*
X0004653Y0004653D01*
X0004653Y0229631D01*
X0166639Y0229631D01*
X0144701Y0180134D02*
X0144701Y0148638D01*
X0144701Y0144701D01*
X0144701Y0142732D02*
X0063992Y0142732D01*
X0062024Y0144701D01*
X0064899Y0146561D02*
X0123567Y0146561D01*
X0123331Y0148528D02*
X0040086Y0148528D01*
X0040086Y0150495D02*
X0123475Y0150495D01*
X0124290Y0152462D02*
X0040086Y0152462D01*
X0040086Y0154429D02*
X0125979Y0154429D01*
X0129791Y0162639D02*
X0127701Y0163504D01*
X0126102Y0165103D01*
X0125237Y0167192D01*
X0125237Y0169453D01*
X0126102Y0171543D01*
X0127701Y0173142D01*
X0129791Y0174007D01*
X0132052Y0174007D01*
X0134141Y0173142D01*
X0135740Y0171543D01*
X0136605Y0169453D01*
X0136605Y0167192D01*
X0135740Y0165103D01*
X0134141Y0163504D01*
X0132052Y0162639D01*
X0129791Y0162639D01*
X0126942Y0164264D02*
X0040086Y0164264D01*
X0040086Y0166231D02*
X0125635Y0166231D01*
X0125237Y0168198D02*
X0040086Y0168198D01*
X0040086Y0170165D02*
X0125532Y0170165D01*
X0126692Y0172132D02*
X0040086Y0172132D01*
X0040086Y0174099D02*
X0142032Y0174099D01*
X0142032Y0176066D02*
X0040086Y0176066D01*
X0040086Y0178033D02*
X0059361Y0178033D01*
X0058655Y0180000D02*
X0040086Y0180000D01*
X0040086Y0162297D02*
X0142032Y0162297D01*
X0142032Y0164264D02*
X0134901Y0164264D01*
X0136207Y0166231D02*
X0142032Y0166231D01*
X0142032Y0168198D02*
X0136605Y0168198D01*
X0136311Y0170165D02*
X0142032Y0170165D01*
X0142032Y0172132D02*
X0135151Y0172132D01*
X0142032Y0160330D02*
X0040086Y0160330D01*
X0040086Y0158363D02*
X0142032Y0158363D01*
X0142032Y0156396D02*
X0040086Y0156396D01*
X0040086Y0146561D02*
X0059148Y0146561D01*
X0058655Y0144594D02*
X0040086Y0144594D01*
X0040086Y0142627D02*
X0059334Y0142627D01*
X0044407Y0132829D02*
X0044920Y0131591D01*
X0044920Y0130251D01*
X0044407Y0129013D01*
X0043459Y0128066D01*
X0042221Y0127553D01*
X0040881Y0127553D01*
X0040086Y0127882D01*
X0040086Y0102094D01*
X0060960Y0102094D01*
X0060116Y0102444D01*
X0059168Y0103391D01*
X0058655Y0104629D01*
X0058655Y0105969D01*
X0059168Y0107207D01*
X0060116Y0108155D01*
X0061354Y0108668D01*
X0062694Y0108668D01*
X0063932Y0108155D01*
X0064879Y0107207D01*
X0065367Y0106031D01*
X0124047Y0106031D01*
X0123331Y0107758D01*
X0123331Y0110777D01*
X0124487Y0113567D01*
X0126622Y0115702D01*
X0129412Y0116857D01*
X0137111Y0116857D01*
X0137111Y0140064D01*
X0102546Y0140064D01*
X0102794Y0139465D01*
X0102794Y0138125D01*
X0102281Y0136887D01*
X0101333Y0135940D01*
X0100095Y0135427D01*
X0098755Y0135427D01*
X0097517Y0135940D01*
X0097330Y0136127D01*
X0040086Y0136127D01*
X0040086Y0133960D01*
X0040881Y0134290D01*
X0042221Y0134290D01*
X0043459Y0133777D01*
X0044407Y0132829D01*
X0044423Y0132792D02*
X0126721Y0132792D01*
X0126102Y0132173D02*
X0125237Y0130083D01*
X0125237Y0127822D01*
X0126102Y0125733D01*
X0127701Y0124134D01*
X0129791Y0123269D01*
X0132052Y0123269D01*
X0134141Y0124134D01*
X0135740Y0125733D01*
X0136605Y0127822D01*
X0136605Y0130083D01*
X0135740Y0132173D01*
X0134141Y0133772D01*
X0132052Y0134637D01*
X0129791Y0134637D01*
X0127701Y0133772D01*
X0126102Y0132173D01*
X0125544Y0130824D02*
X0044920Y0130824D01*
X0044251Y0128857D02*
X0125237Y0128857D01*
X0125623Y0126890D02*
X0040086Y0126890D01*
X0040086Y0124923D02*
X0126912Y0124923D01*
X0134931Y0124923D02*
X0137111Y0124923D01*
X0137111Y0122956D02*
X0040086Y0122956D01*
X0040086Y0120989D02*
X0137111Y0120989D01*
X0137111Y0119022D02*
X0040086Y0119022D01*
X0040086Y0117055D02*
X0137111Y0117055D01*
X0144701Y0109268D02*
X0144701Y0105331D01*
X0132890Y0105331D01*
X0132890Y0105594D01*
X0137111Y0099352D02*
X0102794Y0099352D01*
X0102149Y0097385D02*
X0137111Y0097385D01*
X0137111Y0095418D02*
X0040086Y0095418D01*
X0040086Y0093451D02*
X0126751Y0093451D01*
X0126102Y0092803D02*
X0125237Y0090713D01*
X0125237Y0088452D01*
X0126102Y0086363D01*
X0127701Y0084764D01*
X0129791Y0083898D01*
X0132052Y0083898D01*
X0134141Y0084764D01*
X0135740Y0086363D01*
X0136605Y0088452D01*
X0136605Y0090713D01*
X0135740Y0092803D01*
X0134141Y0094402D01*
X0132052Y0095267D01*
X0129791Y0095267D01*
X0127701Y0094402D01*
X0126102Y0092803D01*
X0125556Y0091484D02*
X0040086Y0091484D01*
X0040086Y0089517D02*
X0125237Y0089517D01*
X0125611Y0087550D02*
X0040086Y0087550D01*
X0040086Y0085583D02*
X0126882Y0085583D01*
X0134960Y0085583D02*
X0137111Y0085583D01*
X0137111Y0083616D02*
X0040086Y0083616D01*
X0040086Y0081649D02*
X0137111Y0081649D01*
X0137111Y0079682D02*
X0040086Y0079682D01*
X0040086Y0077715D02*
X0137111Y0077715D01*
X0137111Y0087550D02*
X0136232Y0087550D01*
X0136605Y0089517D02*
X0137111Y0089517D01*
X0137111Y0091484D02*
X0136286Y0091484D01*
X0137111Y0093451D02*
X0135091Y0093451D01*
X0144701Y0103362D02*
X0063961Y0103362D01*
X0062024Y0105299D01*
X0064866Y0107220D02*
X0123554Y0107220D01*
X0123331Y0109187D02*
X0040086Y0109187D01*
X0040086Y0107220D02*
X0059181Y0107220D01*
X0058655Y0105253D02*
X0040086Y0105253D01*
X0040086Y0103286D02*
X0059273Y0103286D01*
X0040086Y0111154D02*
X0123488Y0111154D01*
X0124302Y0113121D02*
X0040086Y0113121D01*
X0040086Y0115088D02*
X0126008Y0115088D01*
X0136220Y0126890D02*
X0137111Y0126890D01*
X0137111Y0128857D02*
X0136605Y0128857D01*
X0136299Y0130824D02*
X0137111Y0130824D01*
X0137111Y0132792D02*
X0135121Y0132792D01*
X0137111Y0134759D02*
X0040086Y0134759D01*
X0041551Y0130921D02*
X0036433Y0130921D01*
X0036433Y0138795D02*
X0099425Y0138795D01*
X0102119Y0136726D02*
X0137111Y0136726D01*
X0137111Y0138693D02*
X0102794Y0138693D01*
X0099425Y0099425D02*
X0036433Y0099425D01*
X0040086Y0075748D02*
X0126038Y0075748D01*
X0124315Y0073781D02*
X0040086Y0073781D01*
X0040086Y0071814D02*
X0123500Y0071814D01*
X0123331Y0069847D02*
X0040086Y0069847D01*
X0040086Y0067880D02*
X0123542Y0067880D01*
X0124357Y0065913D02*
X0040086Y0065913D01*
X0040086Y0063946D02*
X0126139Y0063946D01*
X0126053Y0056078D02*
X0040086Y0056078D01*
X0040086Y0054111D02*
X0124321Y0054111D01*
X0123506Y0052144D02*
X0040086Y0052144D01*
X0040086Y0050177D02*
X0123331Y0050177D01*
X0123536Y0048210D02*
X0040086Y0048210D01*
X0040086Y0046243D02*
X0124350Y0046243D01*
X0126124Y0044276D02*
X0040086Y0044276D01*
X0040086Y0042309D02*
X0166639Y0042309D01*
X0166639Y0040342D02*
X0040086Y0040342D01*
X0040086Y0038375D02*
X0166639Y0038375D01*
X0166639Y0036408D02*
X0135571Y0036408D01*
X0135687Y0036377D02*
X0135182Y0036512D01*
X0131217Y0036512D01*
X0131217Y0030823D01*
X0136905Y0030823D01*
X0136905Y0034789D01*
X0136770Y0035293D01*
X0136509Y0035746D01*
X0136140Y0036115D01*
X0135687Y0036377D01*
X0136905Y0034441D02*
X0166639Y0034441D01*
X0166639Y0032474D02*
X0136905Y0032474D01*
X0136905Y0030232D02*
X0131217Y0030232D01*
X0131217Y0030823D01*
X0130626Y0030823D01*
X0130626Y0036512D01*
X0126660Y0036512D01*
X0126155Y0036377D01*
X0125703Y0036115D01*
X0125333Y0035746D01*
X0125072Y0035293D01*
X0124937Y0034789D01*
X0124937Y0030823D01*
X0130626Y0030823D01*
X0130626Y0030232D01*
X0131217Y0030232D01*
X0131217Y0024543D01*
X0135182Y0024543D01*
X0135687Y0024679D01*
X0136140Y0024940D01*
X0136509Y0025309D01*
X0136770Y0025762D01*
X0136905Y0026266D01*
X0136905Y0030232D01*
X0136905Y0028540D02*
X0166639Y0028540D01*
X0166639Y0030507D02*
X0131217Y0030507D01*
X0130626Y0030507D02*
X0101172Y0030507D01*
X0101172Y0029397D02*
X0101172Y0031658D01*
X0100307Y0033747D01*
X0098708Y0035346D01*
X0096619Y0036212D01*
X0094358Y0036212D01*
X0092268Y0035346D01*
X0090669Y0033747D01*
X0089804Y0031658D01*
X0089804Y0029397D01*
X0090669Y0027308D01*
X0092268Y0025709D01*
X0094358Y0024843D01*
X0096619Y0024843D01*
X0098708Y0025709D01*
X0100307Y0027308D01*
X0101172Y0029397D01*
X0100817Y0028540D02*
X0124937Y0028540D01*
X0124937Y0030232D02*
X0124937Y0026266D01*
X0125072Y0025762D01*
X0125333Y0025309D01*
X0125703Y0024940D01*
X0126155Y0024679D01*
X0126660Y0024543D01*
X0130626Y0024543D01*
X0130626Y0030232D01*
X0124937Y0030232D01*
X0124937Y0032474D02*
X0100835Y0032474D01*
X0099614Y0034441D02*
X0124937Y0034441D01*
X0126272Y0036408D02*
X0057246Y0036408D01*
X0057519Y0036364D02*
X0056589Y0036512D01*
X0056413Y0036512D01*
X0056413Y0030823D01*
X0055823Y0030823D01*
X0055823Y0036512D01*
X0055647Y0036512D01*
X0054717Y0036364D01*
X0053821Y0036073D01*
X0052982Y0035646D01*
X0052220Y0035092D01*
X0051554Y0034426D01*
X0051000Y0033664D01*
X0050572Y0032825D01*
X0050281Y0031929D01*
X0050134Y0030999D01*
X0050134Y0030823D01*
X0055823Y0030823D01*
X0055823Y0030232D01*
X0056413Y0030232D01*
X0056413Y0024543D01*
X0056589Y0024543D01*
X0057519Y0024691D01*
X0058415Y0024982D01*
X0059255Y0025409D01*
X0060017Y0025963D01*
X0060683Y0026629D01*
X0061236Y0027391D01*
X0061664Y0028230D01*
X0061955Y0029126D01*
X0062102Y0030057D01*
X0062102Y0030232D01*
X0056413Y0030232D01*
X0056413Y0030823D01*
X0062102Y0030823D01*
X0062102Y0030999D01*
X0061955Y0031929D01*
X0061664Y0032825D01*
X0061236Y0033664D01*
X0060683Y0034426D01*
X0060017Y0035092D01*
X0059255Y0035646D01*
X0058415Y0036073D01*
X0057519Y0036364D01*
X0056413Y0036408D02*
X0055823Y0036408D01*
X0054990Y0036408D02*
X0040086Y0036408D01*
X0042117Y0034441D02*
X0051568Y0034441D01*
X0050458Y0032474D02*
X0042117Y0032474D01*
X0042117Y0030507D02*
X0055823Y0030507D01*
X0055823Y0030232D02*
X0050134Y0030232D01*
X0050134Y0030057D01*
X0050281Y0029126D01*
X0050572Y0028230D01*
X0051000Y0027391D01*
X0051554Y0026629D01*
X0052220Y0025963D01*
X0052982Y0025409D01*
X0053821Y0024982D01*
X0054717Y0024691D01*
X0055647Y0024543D01*
X0055823Y0024543D01*
X0055823Y0030232D01*
X0056413Y0030507D02*
X0070119Y0030507D01*
X0070119Y0032474D02*
X0061778Y0032474D01*
X0060668Y0034441D02*
X0070119Y0034441D01*
X0070119Y0035225D02*
X0070119Y0025830D01*
X0071105Y0024843D01*
X0080501Y0024843D01*
X0081487Y0025830D01*
X0081487Y0035225D01*
X0080501Y0036212D01*
X0071105Y0036212D01*
X0070119Y0035225D01*
X0070119Y0028540D02*
X0061764Y0028540D01*
X0060626Y0026573D02*
X0070119Y0026573D01*
X0081487Y0026573D02*
X0091404Y0026573D01*
X0090159Y0028540D02*
X0081487Y0028540D01*
X0081487Y0030507D02*
X0089804Y0030507D01*
X0090142Y0032474D02*
X0081487Y0032474D01*
X0081487Y0034441D02*
X0091363Y0034441D01*
X0099572Y0026573D02*
X0124937Y0026573D01*
X0126427Y0024606D02*
X0056983Y0024606D01*
X0056413Y0024606D02*
X0055823Y0024606D01*
X0055253Y0024606D02*
X0004653Y0024606D01*
X0004653Y0026573D02*
X0030749Y0026573D01*
X0030749Y0028540D02*
X0004653Y0028540D01*
X0004653Y0030507D02*
X0030749Y0030507D01*
X0030749Y0032474D02*
X0004653Y0032474D01*
X0004653Y0034441D02*
X0030749Y0034441D01*
X0032780Y0036408D02*
X0004653Y0036408D01*
X0004653Y0038375D02*
X0032780Y0038375D01*
X0032780Y0040342D02*
X0004653Y0040342D01*
X0004653Y0042309D02*
X0032780Y0042309D01*
X0032780Y0044276D02*
X0004653Y0044276D01*
X0004653Y0046243D02*
X0032780Y0046243D01*
X0032780Y0048210D02*
X0004653Y0048210D01*
X0004653Y0050177D02*
X0032780Y0050177D01*
X0032780Y0052144D02*
X0004653Y0052144D01*
X0004653Y0054111D02*
X0032780Y0054111D01*
X0032780Y0056078D02*
X0004653Y0056078D01*
X0004653Y0058045D02*
X0032780Y0058045D01*
X0042117Y0028540D02*
X0050472Y0028540D01*
X0051610Y0026573D02*
X0042117Y0026573D01*
X0055823Y0026573D02*
X0056413Y0026573D01*
X0056413Y0028540D02*
X0055823Y0028540D01*
X0055823Y0032474D02*
X0056413Y0032474D01*
X0056413Y0034441D02*
X0055823Y0034441D01*
X0021214Y0019079D02*
X0022369Y0016289D01*
X0022369Y0013270D01*
X0021214Y0010480D01*
X0019079Y0008345D01*
X0016289Y0007190D01*
X0013270Y0007190D01*
X0010480Y0008345D01*
X0008345Y0010480D01*
X0007190Y0013270D01*
X0007190Y0016289D01*
X0008345Y0019079D01*
X0010480Y0021214D01*
X0013270Y0022369D01*
X0016289Y0022369D01*
X0019079Y0021214D01*
X0021214Y0019079D01*
X0021369Y0018705D02*
X0149923Y0018705D01*
X0150078Y0019079D02*
X0148922Y0016289D01*
X0148922Y0013270D01*
X0150078Y0010480D01*
X0152213Y0008345D01*
X0155002Y0007190D01*
X0158022Y0007190D01*
X0160811Y0008345D01*
X0162946Y0010480D01*
X0164102Y0013270D01*
X0164102Y0016289D01*
X0162946Y0019079D01*
X0160811Y0021214D01*
X0158022Y0022369D01*
X0155002Y0022369D01*
X0152213Y0021214D01*
X0150078Y0019079D01*
X0151670Y0020672D02*
X0019621Y0020672D01*
X0022184Y0016738D02*
X0149108Y0016738D01*
X0148922Y0014771D02*
X0022369Y0014771D01*
X0022176Y0012804D02*
X0149115Y0012804D01*
X0149930Y0010837D02*
X0021361Y0010837D01*
X0019603Y0008870D02*
X0151688Y0008870D01*
X0161335Y0008870D02*
X0166639Y0008870D01*
X0166639Y0010837D02*
X0163094Y0010837D01*
X0163908Y0012804D02*
X0166639Y0012804D01*
X0166639Y0014771D02*
X0164102Y0014771D01*
X0163916Y0016738D02*
X0166639Y0016738D01*
X0166639Y0018705D02*
X0163101Y0018705D01*
X0161353Y0020672D02*
X0166639Y0020672D01*
X0166639Y0022639D02*
X0004653Y0022639D01*
X0004653Y0020672D02*
X0009938Y0020672D01*
X0008190Y0018705D02*
X0004653Y0018705D01*
X0004653Y0016738D02*
X0007376Y0016738D01*
X0007190Y0014771D02*
X0004653Y0014771D01*
X0004653Y0012804D02*
X0007383Y0012804D01*
X0008198Y0010837D02*
X0004653Y0010837D01*
X0004653Y0008870D02*
X0009956Y0008870D01*
X0004653Y0006903D02*
X0166639Y0006903D01*
X0166639Y0004936D02*
X0004653Y0004936D01*
X0130626Y0024606D02*
X0131217Y0024606D01*
X0131217Y0026573D02*
X0130626Y0026573D01*
X0130626Y0028540D02*
X0131217Y0028540D01*
X0131217Y0032474D02*
X0130626Y0032474D01*
X0130626Y0034441D02*
X0131217Y0034441D01*
X0131217Y0036408D02*
X0130626Y0036408D01*
X0136905Y0026573D02*
X0166639Y0026573D01*
X0166639Y0024606D02*
X0135415Y0024606D01*
X0140764Y0065961D02*
X0144701Y0069898D01*
X0144701Y0180134D02*
X0062024Y0180134D01*
D14*
X0062024Y0180134D03*
X0062024Y0164386D03*
X0062024Y0144701D03*
X0061630Y0125016D03*
X0062024Y0105299D03*
X0061236Y0085646D03*
X0041551Y0130921D03*
X0099425Y0138795D03*
X0099425Y0099425D03*
X0099425Y0060055D03*
D15*
X0130921Y0050213D02*
X0144701Y0050213D01*
X0144701Y0069898D01*
X0130921Y0069898D01*
X0144701Y0069898D02*
X0144701Y0103362D01*
X0144701Y0109268D01*
X0130921Y0109268D01*
X0144701Y0109268D02*
X0144701Y0142732D01*
X0144701Y0148638D01*
X0130921Y0148638D01*
D16*
X0036433Y0138795D02*
X0036433Y0130921D01*
X0036433Y0099425D01*
X0036433Y0060055D01*
X0036433Y0030528D01*
X0036433Y0138795D02*
X0036433Y0195882D01*
M02*
