%
M48
M72
T01C0.01969
T02C0.05118
T03C0.11811
%
T01
X61236Y85646
X62024Y105299
X61630Y125016
X62024Y144701
X62024Y164386
X62024Y180134
X41551Y130921
X99425Y138795
X99425Y99425
X99425Y60055
T02
X36433Y195882
X56118Y195882
X75803Y195882
X95488Y195882
X130921Y168323
X130921Y148638
X130921Y128953
X130921Y109268
X130921Y89583
X130921Y69898
X130921Y50213
X130921Y30528
X95488Y30528
X75803Y30528
X56118Y30528
X36433Y30528
T03
X14780Y219504
X156512Y219504
X156512Y14780
X14780Y14780
M30
