G04 MADE WITH FRITZING*
G04 WWW.FRITZING.ORG*
G04 DOUBLE SIDED*
G04 HOLES PLATED*
G04 CONTOUR ON CENTER OF CONTOUR VECTOR*
%ASAXBY*%
%FSLAX23Y23*%
%MOIN*%
%OFA0B0*%
%SFA1.0B1.0*%
%ADD10C,0.078000*%
%ADD11C,0.065418*%
%ADD12C,0.070000*%
%ADD13C,0.063000*%
%ADD14C,0.075000*%
%ADD15C,0.080000*%
%ADD16C,0.082000*%
%ADD17C,0.039370*%
%ADD18R,0.070000X0.069972*%
%ADD19R,0.075000X0.075000*%
%ADD20R,0.080000X0.080000*%
%ADD21R,0.082000X0.082000*%
%ADD22C,0.024000*%
%ADD23C,0.048000*%
%ADD24C,0.032000*%
%LNCOPPER0*%
G90*
G70*
G54D10*
X1106Y1250D03*
X1006Y1250D03*
X1506Y1650D03*
X1406Y1650D03*
X1906Y1650D03*
X1806Y1650D03*
X2306Y1650D03*
X2206Y1650D03*
X2656Y750D03*
X2656Y850D03*
X2656Y950D03*
G54D11*
X1905Y944D03*
X1905Y745D03*
X1705Y944D03*
X1705Y745D03*
G54D12*
X1006Y1150D03*
X1106Y1150D03*
X1206Y1150D03*
X1306Y1150D03*
X1406Y1150D03*
X1506Y1150D03*
X1606Y1150D03*
X1706Y1150D03*
X1806Y1150D03*
X1906Y1150D03*
X2006Y1150D03*
X2106Y1150D03*
X2206Y1150D03*
X2306Y1150D03*
X2406Y1150D03*
X1006Y1750D03*
X1106Y1750D03*
X1206Y1750D03*
X1306Y1750D03*
X1406Y1750D03*
X1506Y1750D03*
X1606Y1750D03*
X1706Y1750D03*
X1806Y1750D03*
X1906Y1750D03*
X2006Y1750D03*
X2106Y1750D03*
X2206Y1750D03*
X2306Y1750D03*
X2406Y1750D03*
G54D13*
X706Y1250D03*
X706Y1350D03*
X706Y1450D03*
X706Y1550D03*
X406Y1550D03*
X406Y1450D03*
X406Y1350D03*
X406Y1250D03*
G54D14*
X206Y1350D03*
X206Y1750D03*
X406Y1750D03*
X806Y1750D03*
G54D15*
X1606Y450D03*
X1406Y450D03*
X1206Y450D03*
X1006Y450D03*
X406Y450D03*
X206Y450D03*
X656Y2050D03*
X856Y2050D03*
X2256Y2050D03*
X2456Y2050D03*
X1856Y2050D03*
X2056Y2050D03*
X256Y2050D03*
X456Y2050D03*
X1456Y2050D03*
X1656Y2050D03*
X1056Y2050D03*
X1256Y2050D03*
X806Y450D03*
X606Y450D03*
X2406Y450D03*
X2206Y450D03*
X2006Y450D03*
X1806Y450D03*
G54D16*
X1006Y800D03*
X1106Y800D03*
X1206Y800D03*
G54D14*
X1456Y700D03*
X1456Y800D03*
X756Y700D03*
X756Y800D03*
G54D17*
X1106Y1350D03*
G54D14*
X2506Y750D03*
X2106Y750D03*
X2506Y850D03*
X2106Y850D03*
X2506Y950D03*
X2106Y950D03*
G54D17*
X2557Y1902D03*
X1354Y1850D03*
X2106Y1902D03*
X2206Y1950D03*
X1506Y1950D03*
G54D10*
X806Y1000D03*
X1206Y1000D03*
G54D17*
X894Y1077D03*
G54D18*
X1006Y1150D03*
G54D19*
X206Y1350D03*
X406Y1750D03*
G54D20*
X1606Y450D03*
X1206Y450D03*
X406Y450D03*
X656Y2050D03*
X2256Y2050D03*
X1856Y2050D03*
X256Y2050D03*
X1456Y2050D03*
X1056Y2050D03*
X806Y450D03*
X2406Y450D03*
X2006Y450D03*
G54D21*
X1006Y800D03*
G54D19*
X1456Y700D03*
X756Y700D03*
X2506Y750D03*
X2506Y850D03*
X2506Y950D03*
G54D22*
X2006Y1121D02*
X2006Y950D01*
D02*
X2006Y950D02*
X2006Y650D01*
D02*
X2006Y650D02*
X2206Y650D01*
D02*
X2206Y650D02*
X2206Y481D01*
D02*
X1506Y1721D02*
X1506Y1680D01*
G54D23*
D02*
X1106Y700D02*
X795Y700D01*
D02*
X1106Y757D02*
X1106Y700D01*
D02*
X756Y450D02*
X756Y661D01*
D02*
X763Y450D02*
X756Y450D01*
D02*
X606Y800D02*
X606Y493D01*
D02*
X716Y800D02*
X606Y800D01*
D02*
X962Y800D02*
X795Y800D01*
D02*
X1206Y300D02*
X806Y300D01*
D02*
X806Y300D02*
X806Y408D01*
D02*
X1206Y408D02*
X1206Y300D01*
D02*
X1606Y493D02*
X1606Y550D01*
D02*
X2006Y550D02*
X2006Y493D01*
D02*
X1606Y550D02*
X2006Y550D01*
D02*
X1406Y408D02*
X1406Y350D01*
D02*
X1406Y350D02*
X1806Y350D01*
D02*
X1806Y350D02*
X1806Y408D01*
G54D22*
D02*
X378Y1350D02*
X234Y1350D01*
D02*
X206Y481D02*
X206Y1322D01*
D02*
X1906Y1179D02*
X1906Y1550D01*
D02*
X1906Y1550D02*
X733Y1550D01*
D02*
X678Y1350D02*
X606Y1350D01*
D02*
X606Y1550D02*
X433Y1550D01*
D02*
X606Y1350D02*
X606Y1550D01*
D02*
X1306Y1650D02*
X806Y1650D01*
D02*
X806Y1650D02*
X806Y1722D01*
D02*
X1306Y1721D02*
X1306Y1650D01*
D02*
X1087Y1350D02*
X733Y1350D01*
G54D23*
D02*
X1306Y550D02*
X1306Y1110D01*
D02*
X1457Y550D02*
X1454Y698D01*
D02*
X1306Y550D02*
X1457Y550D01*
D02*
X1454Y698D02*
X1428Y672D01*
D02*
X1206Y550D02*
X1306Y550D01*
D02*
X1206Y550D02*
X1206Y493D01*
D02*
X1106Y550D02*
X1206Y550D01*
D02*
X1106Y757D02*
X1106Y550D01*
G54D22*
D02*
X506Y698D02*
X506Y1450D01*
D02*
X506Y1450D02*
X433Y1450D01*
D02*
X406Y698D02*
X506Y698D01*
D02*
X406Y481D02*
X406Y698D01*
D02*
X206Y1550D02*
X378Y1550D01*
D02*
X206Y1722D02*
X206Y1550D01*
D02*
X1706Y1450D02*
X733Y1450D01*
D02*
X1706Y1179D02*
X1706Y1450D01*
G54D24*
D02*
X456Y1850D02*
X456Y2014D01*
D02*
X1100Y1856D02*
X456Y1850D01*
D02*
X1104Y1785D02*
X1100Y1856D01*
D02*
X1100Y1856D02*
X856Y1850D01*
D02*
X856Y1850D02*
X856Y2014D01*
G54D22*
D02*
X2056Y2081D02*
X2056Y2150D01*
D02*
X2556Y2150D02*
X2557Y1921D01*
D02*
X2056Y2150D02*
X2556Y2150D01*
G54D24*
D02*
X1354Y1850D02*
X2306Y1850D01*
D02*
X2306Y1850D02*
X2306Y1785D01*
D02*
X1332Y1839D02*
X1354Y1850D01*
G54D22*
D02*
X2087Y1902D02*
X1654Y1899D01*
D02*
X1654Y1898D02*
X1655Y2019D01*
D02*
X2187Y1950D02*
X1856Y1950D01*
D02*
X1856Y1950D02*
X1856Y2019D01*
D02*
X1257Y1950D02*
X1256Y2019D01*
D02*
X1487Y1950D02*
X1257Y1950D01*
D02*
X2206Y750D02*
X2206Y1121D01*
D02*
X2477Y750D02*
X2206Y750D01*
D02*
X2506Y1750D02*
X2435Y1750D01*
D02*
X2506Y979D02*
X2506Y1750D01*
D02*
X2306Y850D02*
X2306Y1121D01*
D02*
X2477Y850D02*
X2306Y850D01*
D02*
X706Y1075D02*
X706Y1223D01*
D02*
X875Y1077D02*
X706Y1075D01*
G04 End of Copper0*
M02*