G04 MADE WITH FRITZING*
G04 WWW.FRITZING.ORG*
G04 DOUBLE SIDED*
G04 HOLES PLATED*
G04 CONTOUR ON CENTER OF CONTOUR VECTOR*
%ASAXBY*%
%FSLAX23Y23*%
%MOIN*%
%OFA0B0*%
%SFA1.0B1.0*%
%ADD10C,0.078000*%
%ADD11C,0.065418*%
%ADD12C,0.070000*%
%ADD13C,0.063000*%
%ADD14C,0.075000*%
%ADD15C,0.080000*%
%ADD16C,0.082000*%
%ADD17C,0.039370*%
%ADD18R,0.070000X0.069972*%
%ADD19R,0.075000X0.075000*%
%ADD20R,0.080000X0.080000*%
%ADD21R,0.082000X0.082000*%
%ADD22C,0.024000*%
%ADD23C,0.048000*%
%ADD24C,0.032000*%
%LNCOPPER1*%
G90*
G70*
G54D10*
X1106Y1250D03*
X1006Y1250D03*
X1506Y1650D03*
X1406Y1650D03*
X1906Y1650D03*
X1806Y1650D03*
X2306Y1650D03*
X2206Y1650D03*
X2656Y750D03*
X2656Y850D03*
X2656Y950D03*
G54D11*
X1905Y944D03*
X1905Y745D03*
X1705Y944D03*
X1705Y745D03*
G54D12*
X1006Y1150D03*
X1106Y1150D03*
X1206Y1150D03*
X1306Y1150D03*
X1406Y1150D03*
X1506Y1150D03*
X1606Y1150D03*
X1706Y1150D03*
X1806Y1150D03*
X1906Y1150D03*
X2006Y1150D03*
X2106Y1150D03*
X2206Y1150D03*
X2306Y1150D03*
X2406Y1150D03*
X1006Y1750D03*
X1106Y1750D03*
X1206Y1750D03*
X1306Y1750D03*
X1406Y1750D03*
X1506Y1750D03*
X1606Y1750D03*
X1706Y1750D03*
X1806Y1750D03*
X1906Y1750D03*
X2006Y1750D03*
X2106Y1750D03*
X2206Y1750D03*
X2306Y1750D03*
X2406Y1750D03*
G54D13*
X706Y1250D03*
X706Y1350D03*
X706Y1450D03*
X706Y1550D03*
X406Y1550D03*
X406Y1450D03*
X406Y1350D03*
X406Y1250D03*
X706Y1250D03*
X706Y1350D03*
X706Y1450D03*
X706Y1550D03*
X406Y1550D03*
X406Y1450D03*
X406Y1350D03*
X406Y1250D03*
G54D14*
X206Y1350D03*
X206Y1750D03*
X406Y1750D03*
X806Y1750D03*
G54D15*
X1606Y450D03*
X1406Y450D03*
X1206Y450D03*
X1006Y450D03*
X406Y450D03*
X206Y450D03*
X656Y2050D03*
X856Y2050D03*
X2256Y2050D03*
X2456Y2050D03*
X1856Y2050D03*
X2056Y2050D03*
X256Y2050D03*
X456Y2050D03*
X1456Y2050D03*
X1656Y2050D03*
X1056Y2050D03*
X1256Y2050D03*
X806Y450D03*
X606Y450D03*
X2406Y450D03*
X2206Y450D03*
X2006Y450D03*
X1806Y450D03*
G54D16*
X1006Y800D03*
X1106Y800D03*
X1206Y800D03*
G54D14*
X1456Y700D03*
X1456Y800D03*
X756Y700D03*
X756Y800D03*
G54D17*
X1106Y1350D03*
G54D14*
X2506Y750D03*
X2106Y750D03*
X2506Y850D03*
X2106Y850D03*
X2506Y950D03*
X2106Y950D03*
G54D17*
X2557Y1902D03*
X1354Y1850D03*
X2106Y1902D03*
X2206Y1950D03*
X1506Y1950D03*
G54D10*
X806Y1000D03*
X1206Y1000D03*
X806Y1000D03*
X1206Y1000D03*
G54D17*
X894Y1077D03*
G54D18*
X1006Y1150D03*
G54D19*
X206Y1350D03*
X406Y1750D03*
G54D20*
X1606Y450D03*
X1206Y450D03*
X406Y450D03*
X656Y2050D03*
X2256Y2050D03*
X1856Y2050D03*
X256Y2050D03*
X1456Y2050D03*
X1056Y2050D03*
X806Y450D03*
X2406Y450D03*
X2006Y450D03*
G54D21*
X1006Y800D03*
G54D19*
X1456Y700D03*
X756Y700D03*
X2506Y750D03*
X2506Y850D03*
X2506Y950D03*
G54D22*
X1006Y1220D02*
X1006Y1179D01*
D02*
X1106Y1179D02*
X1106Y1220D01*
G54D23*
D02*
X1306Y1350D02*
X1306Y1191D01*
D02*
X1136Y1350D02*
X1306Y1350D01*
G54D22*
D02*
X2625Y750D02*
X2534Y750D01*
D02*
X2625Y850D02*
X2534Y850D01*
D02*
X2625Y950D02*
X2534Y950D01*
D02*
X2077Y949D02*
X1939Y945D01*
D02*
X2077Y750D02*
X1939Y746D01*
D02*
X1672Y739D02*
X1484Y705D01*
D02*
X2206Y1721D02*
X2206Y1680D01*
D02*
X2306Y1721D02*
X2306Y1680D01*
D02*
X1706Y850D02*
X1705Y911D01*
D02*
X2077Y850D02*
X1706Y850D01*
D02*
X1906Y1721D02*
X1906Y1680D01*
D02*
X1806Y1721D02*
X1806Y1680D01*
D02*
X1406Y1721D02*
X1406Y1680D01*
G54D23*
D02*
X1206Y844D02*
X1206Y958D01*
D02*
X806Y1500D02*
X806Y1042D01*
D02*
X1006Y1500D02*
X806Y1500D01*
D02*
X1006Y1710D02*
X1006Y1500D01*
D02*
X1006Y493D02*
X1006Y757D01*
G54D22*
D02*
X557Y1250D02*
X557Y1750D01*
D02*
X433Y1250D02*
X557Y1250D01*
D02*
X557Y1750D02*
X777Y1750D01*
G54D23*
D02*
X1106Y1710D02*
X1106Y1380D01*
D02*
X1249Y800D02*
X1416Y800D01*
G54D22*
D02*
X306Y1750D02*
X306Y1450D01*
D02*
X306Y1450D02*
X378Y1450D01*
D02*
X377Y1750D02*
X306Y1750D01*
G54D24*
D02*
X256Y1850D02*
X256Y2014D01*
D02*
X1306Y1850D02*
X256Y1850D01*
D02*
X1306Y1785D02*
X1306Y1850D01*
G54D22*
D02*
X2657Y2050D02*
X2654Y1250D01*
D02*
X2654Y1250D02*
X2106Y1250D01*
D02*
X2106Y1250D02*
X2106Y1179D01*
D02*
X2487Y2050D02*
X2657Y2050D01*
D02*
X2257Y1950D02*
X2256Y2019D01*
D02*
X2606Y1950D02*
X2257Y1950D01*
D02*
X1806Y1179D02*
X1806Y1302D01*
D02*
X2606Y1298D02*
X2606Y1950D01*
D02*
X1806Y1302D02*
X2606Y1298D01*
D02*
X2557Y1883D02*
X2557Y1350D01*
D02*
X2557Y1350D02*
X1506Y1350D01*
D02*
X1506Y1350D02*
X1506Y1179D01*
D02*
X2206Y1900D02*
X2206Y1931D01*
D02*
X2506Y1900D02*
X2206Y1900D01*
D02*
X1406Y1179D02*
X1406Y1398D01*
D02*
X2506Y1402D02*
X2506Y1900D01*
D02*
X1406Y1398D02*
X2506Y1402D01*
G54D24*
D02*
X1354Y1898D02*
X1354Y1875D01*
D02*
X657Y1898D02*
X1354Y1898D01*
D02*
X656Y2014D02*
X657Y1899D01*
G54D22*
D02*
X2006Y1850D02*
X1957Y1850D01*
D02*
X1957Y1850D02*
X1957Y2150D01*
D02*
X1957Y2150D02*
X1457Y2150D01*
D02*
X2006Y1779D02*
X2006Y1850D01*
D02*
X1457Y2150D02*
X1456Y2081D01*
D02*
X2106Y1779D02*
X2106Y1883D01*
D02*
X1406Y1850D02*
X1406Y1950D01*
D02*
X1406Y1950D02*
X1054Y1950D01*
D02*
X1606Y1850D02*
X1406Y1850D01*
D02*
X1054Y1950D02*
X1055Y2019D01*
D02*
X1606Y1779D02*
X1606Y1850D01*
D02*
X1706Y1950D02*
X1525Y1950D01*
D02*
X1706Y1779D02*
X1706Y1950D01*
D02*
X2406Y1121D02*
X2406Y481D01*
D02*
X1606Y1121D02*
X1606Y1075D01*
D02*
X1606Y1075D02*
X913Y1077D01*
G04 End of Copper1*
M02*