M48
INCH
T10C0.036000
T11C0.032000
T12C0.035000
T13C0.040000
T14C0.042000
T15C0.015748
T16C0.025000
T17C0.031497
T18C0.125984
%
T10
X024333Y017481
X023333Y017481
X022333Y017481
X021333Y017481
X020333Y017481
X019333Y017481
X018333Y017481
X017333Y017481
X016333Y017481
X015333Y017481
X014333Y017481
X013333Y017481
X012333Y017481
X011333Y017481
X010333Y017481
X024333Y011481
X023333Y011481
X022333Y011481
X021333Y011481
X020333Y011481
X019333Y011481
X018333Y011481
X017333Y011481
X016333Y011481
X015333Y011481
X014333Y011481
X013333Y011481
X012333Y011481
X011333Y011481
X010333Y011481
T11
X004333Y012481
X004333Y013481
X004333Y014481
X004333Y015481
X007333Y015481
X007333Y014481
X007333Y013481
X007333Y012481
T12
X019333Y009481
X023333Y009481
X019333Y008481
X023333Y008481
X019333Y007481
X023333Y007481
X026333Y017481
X026333Y013481
X007833Y007981
X007833Y006981
X014833Y007981
X014833Y006981
X008333Y017481
X004333Y017481
X002333Y017481
X002333Y013481
T13
X018333Y004481
X020333Y004481
X022333Y004481
X024333Y004481
X006333Y004481
X008333Y004481
X002333Y004481
X004333Y004481
X010333Y004481
X012333Y004481
X014333Y004481
X016333Y004481
T14
X012333Y007981
X011333Y007981
X010333Y007981
T15
X009333Y011481
X011333Y013481
T16
X017333Y009481
X017333Y008693
X017333Y007907
X017333Y007119
T17
X025833Y007481
X025833Y008465
T18
X026333Y001481
X001333Y018481
T00
M30
