M48
INCH
T10C0.015748
T11C0.038000
T12C0.044584
T13C0.036000
T14C0.032000
T15C0.035000
T16C0.040000
T17C0.042000
T18C0.125984
T19C0.039370
%
T10
X021055Y019244
X025574Y013762
X025055Y019244
X015055Y019503
X013537Y018503
X011055Y013503
X008944Y010770
T11
X026555Y011503
X022055Y016503
X023055Y016503
X018055Y016503
X019055Y016503
X014055Y016503
X015055Y016503
X010055Y012503
X011055Y012503
T12
X014305Y007003
X014305Y008997
X016306Y007003
X016306Y008997
T13
X024055Y017503
X023055Y017503
X022055Y017503
X021055Y017503
X020055Y017503
X019055Y017503
X018055Y017503
X017055Y017503
X016055Y017503
X015055Y017503
X014055Y017503
X013055Y017503
X012055Y017503
X011055Y017503
X010055Y017503
X024055Y011503
X023055Y011503
X022055Y011503
X021055Y011503
X020055Y011503
X019055Y011503
X018055Y011503
X017055Y011503
X016055Y011503
X015055Y011503
X014055Y011503
X013055Y011503
X012055Y011503
X011055Y011503
X010055Y011503
T14
X004055Y012503
X004055Y013503
X004055Y014503
X004055Y015503
X007055Y015503
X007055Y014503
X007055Y013503
X007055Y012503
T15
X017305Y008753
X021305Y008753
X017305Y009753
X021305Y009753
X017305Y007753
X021305Y007753
X006305Y008003
X006305Y007003
X012805Y008003
X012805Y007003
X008055Y017503
X004055Y017503
X002055Y017503
X002055Y013503
T16
X018055Y004503
X020055Y004503
X023805Y007753
X023805Y009753
X022055Y004503
X024055Y004503
X006055Y004503
X008055Y004503
X012555Y020503
X010555Y020503
X016555Y020503
X014555Y020503
X004555Y020503
X002555Y020503
X020555Y020503
X018555Y020503
X024555Y020503
X022555Y020503
X008555Y020503
X006555Y020503
X002055Y004503
X004055Y004503
X010055Y004503
X012055Y004503
X014055Y004503
X016055Y004503
T17
X010555Y008003
X009555Y008003
X008555Y008003
T18
X026555Y023003
X026055Y001503
X001055Y012003
T19
X006805Y010003
X010805Y010003
T00
M30
