G04 MADE WITH FRITZING*
G04 WWW.FRITZING.ORG*
G04 DOUBLE SIDED*
G04 HOLES PLATED*
G04 CONTOUR ON CENTER OF CONTOUR VECTOR*
%ASAXBY*%
%FSLAX23Y23*%
%MOIN*%
%OFA0B0*%
%SFA1.0B1.0*%
%ADD10C,0.039370*%
%ADD11C,0.078000*%
%ADD12C,0.065418*%
%ADD13C,0.070000*%
%ADD14C,0.063000*%
%ADD15C,0.075000*%
%ADD16C,0.080000*%
%ADD17C,0.082000*%
%ADD18R,0.070000X0.069972*%
%ADD19R,0.075000X0.075000*%
%ADD20R,0.080000X0.080000*%
%ADD21R,0.082000X0.082000*%
%ADD22C,0.048000*%
%ADD23C,0.024000*%
%ADD24C,0.064000*%
%ADD25C,0.032000*%
%LNCOPPER1*%
G90*
G70*
G54D10*
X894Y1077D03*
G54D11*
X1106Y1250D03*
X1006Y1250D03*
X1506Y1650D03*
X1406Y1650D03*
X1906Y1650D03*
X1806Y1650D03*
X2306Y1650D03*
X2206Y1650D03*
G54D12*
X1631Y900D03*
X1631Y700D03*
X1431Y900D03*
X1431Y700D03*
G54D13*
X1006Y1150D03*
X1106Y1150D03*
X1206Y1150D03*
X1306Y1150D03*
X1406Y1150D03*
X1506Y1150D03*
X1606Y1150D03*
X1706Y1150D03*
X1806Y1150D03*
X1906Y1150D03*
X2006Y1150D03*
X2106Y1150D03*
X2206Y1150D03*
X2306Y1150D03*
X2406Y1150D03*
X1006Y1750D03*
X1106Y1750D03*
X1206Y1750D03*
X1306Y1750D03*
X1406Y1750D03*
X1506Y1750D03*
X1606Y1750D03*
X1706Y1750D03*
X1806Y1750D03*
X1906Y1750D03*
X2006Y1750D03*
X2106Y1750D03*
X2206Y1750D03*
X2306Y1750D03*
X2406Y1750D03*
G54D14*
X706Y1250D03*
X706Y1350D03*
X706Y1450D03*
X706Y1550D03*
X406Y1550D03*
X406Y1450D03*
X406Y1350D03*
X406Y1250D03*
X706Y1250D03*
X706Y1350D03*
X706Y1450D03*
X706Y1550D03*
X406Y1550D03*
X406Y1450D03*
X406Y1350D03*
X406Y1250D03*
G54D15*
X206Y1350D03*
X206Y1750D03*
X406Y1750D03*
X806Y1750D03*
G54D16*
X1606Y450D03*
X1406Y450D03*
X1206Y450D03*
X1006Y450D03*
X406Y450D03*
X206Y450D03*
X656Y2050D03*
X856Y2050D03*
X2256Y2050D03*
X2456Y2050D03*
X1856Y2050D03*
X2056Y2050D03*
X256Y2050D03*
X456Y2050D03*
X1456Y2050D03*
X1656Y2050D03*
X1056Y2050D03*
X1256Y2050D03*
X806Y450D03*
X606Y450D03*
X2406Y450D03*
X2206Y450D03*
X2006Y450D03*
X1806Y450D03*
G54D17*
X856Y800D03*
X956Y800D03*
X1056Y800D03*
G54D15*
X1281Y700D03*
X1281Y800D03*
X631Y700D03*
X631Y800D03*
G54D10*
X1106Y1350D03*
G54D15*
X2131Y775D03*
X1731Y775D03*
X2131Y975D03*
X1731Y975D03*
X2131Y875D03*
X1731Y875D03*
G54D10*
X1354Y1850D03*
G54D11*
X1081Y1000D03*
X681Y1000D03*
X1081Y1000D03*
X681Y1000D03*
G54D10*
X2506Y1924D03*
X2557Y1376D03*
G54D11*
X2656Y1150D03*
G54D10*
X1506Y1950D03*
X2106Y1924D03*
G54D16*
X2381Y975D03*
X2381Y775D03*
G54D18*
X1006Y1150D03*
G54D19*
X206Y1350D03*
X406Y1750D03*
G54D20*
X1606Y450D03*
X1206Y450D03*
X406Y450D03*
X656Y2050D03*
X2256Y2050D03*
X1856Y2050D03*
X256Y2050D03*
X1456Y2050D03*
X1056Y2050D03*
X806Y450D03*
X2406Y450D03*
X2006Y450D03*
G54D21*
X856Y800D03*
G54D19*
X1281Y700D03*
X631Y700D03*
X2131Y775D03*
X2131Y975D03*
X2131Y875D03*
G54D20*
X2381Y975D03*
G54D22*
X994Y1712D02*
X854Y1250D01*
D02*
X854Y1250D02*
X704Y1035D01*
D02*
X1075Y959D02*
X1061Y843D01*
G54D23*
D02*
X1606Y1075D02*
X913Y1077D01*
D02*
X1606Y1121D02*
X1606Y1075D01*
G54D22*
D02*
X812Y800D02*
X670Y800D01*
G54D24*
D02*
X1806Y350D02*
X1806Y397D01*
D02*
X1406Y350D02*
X1806Y350D01*
D02*
X1406Y397D02*
X1406Y350D01*
G54D25*
D02*
X806Y1824D02*
X806Y1785D01*
D02*
X806Y1824D02*
X1257Y1824D01*
D02*
X254Y1824D02*
X806Y1824D01*
D02*
X1257Y1824D02*
X1287Y1779D01*
D02*
X255Y2014D02*
X254Y1824D01*
G54D23*
D02*
X306Y1176D02*
X306Y1450D01*
D02*
X406Y1176D02*
X306Y1176D01*
D02*
X306Y1450D02*
X378Y1450D01*
D02*
X406Y481D02*
X406Y1176D01*
D02*
X1006Y1220D02*
X1006Y1179D01*
D02*
X1106Y1179D02*
X1106Y1220D01*
G54D22*
D02*
X1306Y1350D02*
X1306Y1191D01*
D02*
X1136Y1350D02*
X1306Y1350D01*
G54D23*
D02*
X1703Y882D02*
X1663Y892D01*
D02*
X1708Y758D02*
X1657Y720D01*
D02*
X2206Y1721D02*
X2206Y1680D01*
D02*
X2306Y1721D02*
X2306Y1680D01*
D02*
X1906Y1721D02*
X1906Y1680D01*
D02*
X1806Y1721D02*
X1806Y1680D01*
D02*
X1406Y1721D02*
X1406Y1680D01*
D02*
X557Y1250D02*
X557Y1750D01*
D02*
X433Y1250D02*
X557Y1250D01*
D02*
X557Y1750D02*
X777Y1750D01*
G54D22*
D02*
X1106Y1710D02*
X1106Y1380D01*
D02*
X1099Y800D02*
X1241Y800D01*
G54D23*
D02*
X306Y1750D02*
X306Y1450D01*
D02*
X306Y1450D02*
X378Y1450D01*
D02*
X377Y1750D02*
X306Y1750D01*
D02*
X2657Y2050D02*
X2654Y1250D01*
D02*
X2654Y1250D02*
X2106Y1250D01*
D02*
X2106Y1250D02*
X2106Y1179D01*
D02*
X2487Y2050D02*
X2657Y2050D01*
D02*
X2254Y1976D02*
X2255Y2019D01*
D02*
X2606Y1976D02*
X2254Y1976D01*
D02*
X1806Y1179D02*
X1806Y1302D01*
D02*
X2606Y1298D02*
X2606Y1976D01*
D02*
X1806Y1302D02*
X2606Y1298D01*
G54D25*
D02*
X1257Y1899D02*
X1332Y1861D01*
D02*
X657Y1898D02*
X1257Y1899D01*
D02*
X656Y2014D02*
X657Y1898D01*
G54D23*
D02*
X2006Y1924D02*
X1957Y2150D01*
D02*
X1957Y2150D02*
X1457Y2150D01*
D02*
X2006Y1779D02*
X2006Y1924D01*
D02*
X1457Y2150D02*
X1456Y2081D01*
D02*
X1406Y1850D02*
X1406Y1950D01*
D02*
X1406Y1950D02*
X1054Y1950D01*
D02*
X1606Y1850D02*
X1406Y1850D01*
D02*
X1054Y1950D02*
X1055Y2019D01*
D02*
X1606Y1779D02*
X1606Y1850D01*
D02*
X1657Y1950D02*
X1525Y1950D01*
D02*
X1699Y1779D02*
X1657Y1950D01*
D02*
X2435Y1150D02*
X2506Y1150D01*
D02*
X2506Y450D02*
X2437Y450D01*
D02*
X2506Y1150D02*
X2506Y450D01*
D02*
X2538Y1376D02*
X1706Y1376D01*
D02*
X1706Y1376D02*
X1706Y1179D01*
D02*
X2506Y1450D02*
X1506Y1450D01*
D02*
X1506Y1450D02*
X1506Y1179D01*
D02*
X2506Y1905D02*
X2506Y1450D01*
D02*
X2349Y775D02*
X2159Y775D01*
D02*
X2106Y1779D02*
X2106Y1905D01*
D02*
X2306Y1121D02*
X2306Y976D01*
D02*
X2306Y976D02*
X2159Y976D01*
D02*
X2306Y976D02*
X2349Y976D01*
D02*
X2306Y1121D02*
X2306Y976D01*
D02*
X1431Y933D02*
X1431Y976D01*
D02*
X1431Y976D02*
X1702Y975D01*
G54D24*
D02*
X1006Y576D02*
X857Y576D01*
D02*
X606Y576D02*
X606Y504D01*
D02*
X1006Y504D02*
X1006Y576D01*
D02*
X857Y576D02*
X606Y576D01*
D02*
X857Y576D02*
X856Y768D01*
G04 End of Copper1*
M02*